<svg width="13" height="8" viewBox="0 0 13 8" fill="none" xmlns="http://www.w3.org/2000/svg">
<path fill-rule="evenodd" clip-rule="evenodd" d="M1.54468 4.9995H9.13068L7.83768 6.2925C7.44668 6.6825 7.44668 7.3165 7.83768 7.7065C8.03268 7.9015 8.28868 7.9995 8.54468 7.9995C8.80068 7.9995 9.05668 7.9015 9.25168 7.7065L12.2507 4.7065C12.3437 4.6145 12.4167 4.5045 12.4677 4.3815C12.5177 4.2605 12.5437 4.1315 12.5437 4.0025C12.5437 4.0015 12.5447 4.0005 12.5447 3.9995C12.5447 3.8695 12.5177 3.7395 12.4677 3.6175C12.4167 3.4945 12.3437 3.3845 12.2517 3.2925L9.25168 0.2925C8.86068 -0.0975 8.22868 -0.0975 7.83768 0.2925C7.44668 0.6825 7.44668 1.3165 7.83768 1.7065L9.13068 2.9995H1.54468C0.992678 2.9995 0.544678 3.4475 0.544678 3.9995C0.544678 4.5515 0.992678 4.9995 1.54468 4.9995Z" fill="white"/>
</svg>
