<svg width="39" height="44" viewBox="0 0 39 44" fill="none" xmlns="http://www.w3.org/2000/svg">
<path fill-rule="evenodd" clip-rule="evenodd" d="M29.5 8H35.5C37.2 8 38.5 9.3 38.5 11V41C38.5 42.7 37.2 44 35.5 44H27.5C26.7 44 26 43.7 25.5 43.2C25 43.7 24.3 44 23.5 44H15.5C14.7 44 14 43.7 13.5 43.2C13 43.7 12.3 44 11.5 44H3.5C1.8 44 0.5 42.7 0.5 41V16C0.5 14.3 1.8 13 3.5 13H9.5C10.1 13 10.5 13.4 10.5 14C10.5 14.6 10.1 15 9.5 15H3.5C2.9 15 2.5 15.4 2.5 16V41C2.5 41.6 2.9 42 3.5 42H11.5C12.1 42 12.5 41.6 12.5 41V19H5.5C4.9 19 4.5 18.6 4.5 18C4.5 17.4 4.9 17 5.5 17H12.5V16V3C12.5 1.3 13.8 0 15.5 0H23.5C25.2 0 26.5 1.3 26.5 3V11V12H33.5C34.1 12 34.5 12.4 34.5 13C34.5 13.6 34.1 14 33.5 14H26.5V41C26.5 41.6 26.9 42 27.5 42H35.5C36.1 42 36.5 41.6 36.5 41V11C36.5 10.4 36.1 10 35.5 10H29.5C28.9 10 28.5 9.60001 28.5 9C28.5 8.39999 28.9 8 29.5 8ZM15.5 42H23.5C24.1 42 24.5 41.6 24.5 41V11V3C24.5 2.39999 24.1 2 23.5 2H15.5C14.9 2 14.5 2.39999 14.5 3V16V41C14.5 41.6 14.9 42 15.5 42Z" fill="#FF3230"/>
<path fill-rule="evenodd" clip-rule="evenodd" d="M17.5 6H21.5C22.1 6 22.5 6.39999 22.5 7V21C22.5 21.6 22.1 22 21.5 22H17.5C16.9 22 16.5 21.6 16.5 21V7C16.5 6.39999 16.9 6 17.5 6ZM9.5 29H5.5C4.9 29 4.5 29.4 4.5 30C4.5 30.6 4.9 31 5.5 31H9.5C10.1 31 10.5 30.6 10.5 30C10.5 29.4 10.1 29 9.5 29ZM5.5 32H9.5C10.1 32 10.5 32.4 10.5 33C10.5 33.6 10.1 34 9.5 34H5.5C4.9 34 4.5 33.6 4.5 33C4.5 32.4 4.9 32 5.5 32ZM9.5 35H5.5C4.9 35 4.5 35.4 4.5 36C4.5 36.6 4.9 37 5.5 37H9.5C10.1 37 10.5 36.6 10.5 36C10.5 35.4 10.1 35 9.5 35ZM5.5 38H9.5C10.1 38 10.5 38.4 10.5 39C10.5 39.6 10.1 40 9.5 40H5.5C4.9 40 4.5 39.6 4.5 39C4.5 38.4 4.9 38 5.5 38ZM21.5 39C21.5 38.4 21.1 38 20.5 38H18.5C17.9 38 17.5 38.4 17.5 39C17.5 39.6 17.9 40 18.5 40H20.5C21.1 40 21.5 39.6 21.5 39ZM29.5 40H33.5C34.1 40 34.5 39.6 34.5 39C34.5 38.4 34.1 38 33.5 38H29.5C28.9 38 28.5 38.4 28.5 39C28.5 39.6 28.9 40 29.5 40ZM20.5 20H18.5V8H20.5V20ZM30.5 32C30.5 32.6 30.1 33 29.5 33C28.9 33 28.5 32.6 28.5 32V20C28.5 19.4 28.9 19 29.5 19C30.1 19 30.5 19.4 30.5 20V32ZM34.5 26C34.5 25.4 34.1 25 33.5 25C32.9 25 32.5 25.4 32.5 26V32C32.5 32.6 32.9 33 33.5 33C34.1 33 34.5 32.6 34.5 32V26ZM19.5 26C20.1 26 20.5 26.4 20.5 27V33C20.5 33.6 20.1 34 19.5 34C18.9 34 18.5 33.6 18.5 33V27C18.5 26.4 18.9 26 19.5 26Z" fill="#FF3230"/>
</svg>
