<svg width="45" height="30" viewBox="0 0 45 30" fill="none" xmlns="http://www.w3.org/2000/svg">
<circle cx="26.5" cy="24" r="1" fill="#FF3230"/>
<circle cx="22.5" cy="24" r="1" fill="#FF3230"/>
<circle cx="18.5" cy="24" r="1" fill="#FF3230"/>
<circle cx="14.5" cy="24" r="1" fill="#FF3230"/>
<circle cx="10.5" cy="24" r="1" fill="#FF3230"/>
<circle cx="6.5" cy="24" r="1" fill="#FF3230"/>
<path d="M2.22501 16.962C2.31701 16.987 2.41001 17 2.50001 17C2.93501 17 3.33501 16.714 3.46101 16.274L5.25401 10H9.26401C9.64501 10 9.98801 10.212 10.158 10.553L11.605 13.448C11.775 13.786 12.121 14 12.5 14H17.5C18.052 14 18.5 13.553 18.5 13V3C18.5 1.346 17.154 0 15.5 0H9.50001C7.84601 0 6.50001 1.346 6.50001 3V5C6.50001 5.553 6.94801 6 7.50001 6C8.05201 6 8.50001 5.553 8.50001 5V3C8.50001 2.448 8.94901 2 9.50001 2H15.5C16.051 2 16.5 2.448 16.5 3V12H13.118L11.947 9.658C11.436 8.636 10.408 8 9.26401 8H4.50001C4.05401 8 3.66101 8.296 3.53901 8.726L1.53901 15.726C1.38701 16.256 1.69401 16.81 2.22501 16.962Z" fill="#FF3230"/>
<path fill-rule="evenodd" clip-rule="evenodd" d="M44.456 29.2258C44.4537 29.2345 44.4513 29.2432 44.449 29.252C44.433 29.311 44.423 29.371 44.398 29.425C44.3776 29.468 44.3493 29.5053 44.3207 29.5429C44.3114 29.5552 44.3021 29.5675 44.293 29.58C44.2852 29.5906 44.2776 29.6013 44.2701 29.612C44.2405 29.6536 44.2112 29.695 44.173 29.73C44.14 29.7607 44.1018 29.7837 44.0627 29.8072C44.0508 29.8143 44.0389 29.8215 44.027 29.829C44.0194 29.8337 44.0119 29.8385 44.0044 29.8432C43.9514 29.8765 43.8996 29.9091 43.84 29.931C43.825 29.937 43.815 29.949 43.799 29.954C43.7 29.985 43.6 30 43.502 30H43.5H41.5C39.309 30 37.215 28.953 35.9 27.199C34.998 25.997 34.5 24.506 34.5 23C34.5 22.447 34.948 22 35.5 22C36.052 22 36.5 22.447 36.5 23C36.5 24.075 36.855 25.141 37.5 25.999C38.439 27.252 39.935 28 41.5 28H42.14L38.44 16.161C38.14 15.201 37.411 14.475 36.5 14.165V19C36.5 19.553 36.052 20 35.5 20H30.963C31.946 21.091 32.5 22.494 32.5 24C32.5 27.309 29.809 30 26.5 30H6.5C3.191 30 0.5 27.309 0.5 24C0.5 20.691 3.191 18 6.5 18H25.5C26.052 18 26.5 18.447 26.5 19C26.5 19.553 26.052 20 25.5 20H6.5C4.294 20 2.5 21.794 2.5 24C2.5 26.206 4.294 28 6.5 28H26.5C28.706 28 30.5 26.206 30.5 24C30.5 22.731 29.917 21.565 28.902 20.801C28.641 20.604 28.521 20.304 28.521 20H28.5V10H21.5C20.948 10 20.5 9.55299 20.5 9C20.5 8.44701 20.948 8 21.5 8H29.5C30.052 8 30.5 8.44701 30.5 9V14H34.5V13C34.5 12.447 34.948 12 35.5 12C37.734 12 39.683 13.433 40.35 15.564L44.454 28.702C44.4636 28.732 44.4646 28.762 44.4655 28.792C44.4662 28.812 44.4668 28.832 44.47 28.852C44.4731 28.8715 44.4784 28.8904 44.4836 28.9092C44.4918 28.9388 44.5 28.9683 44.5 29C44.5 29.0091 44.4974 29.0173 44.4949 29.0255C44.4927 29.0326 44.4905 29.0396 44.49 29.047C44.4874 29.1097 44.4719 29.1671 44.456 29.2258ZM34.5 18V16H30.5V18H34.5Z" fill="#FF3230"/>
<path d="M26.5 11H21.5C20.948 11 20.5 11.447 20.5 12C20.5 12.553 20.948 13 21.5 13H26.5C27.052 13 27.5 12.553 27.5 12C27.5 11.447 27.052 11 26.5 11Z" fill="#FF3230"/>
</svg>
