<svg width="44" height="44" viewBox="0 0 44 44" fill="none" xmlns="http://www.w3.org/2000/svg">
<path fill-rule="evenodd" clip-rule="evenodd" d="M27.613 6.3028L21.707 12.2078C21.316 12.5988 20.683 12.5988 20.292 12.2078C19.901 11.8168 19.901 11.1848 20.292 10.7938L26.198 4.88879C27.343 3.7428 29.341 3.7428 30.487 4.88879L39.112 13.5128C40.294 14.6958 40.294 16.6188 39.112 17.8018L33.206 23.7068C33.011 23.9018 32.755 23.9998 32.499 23.9998C32.243 23.9998 31.987 23.9018 31.791 23.7068C31.4 23.3158 31.4 22.6838 31.791 22.2928L33.835 20.2498L26.292 12.7068C25.901 12.3158 25.901 11.6838 26.292 11.2928C26.683 10.9018 27.315 10.9018 27.706 11.2928L35.249 18.8358L37.697 16.3878C38.1 15.9858 38.1 15.3288 37.697 14.9268L29.073 6.3028C28.682 5.9118 28.003 5.9118 27.613 6.3028ZM12 35C12 33.346 10.654 32 9 32C7.346 32 6 33.346 6 35C6 36.654 7.346 38 9 38C10.654 38 12 36.654 12 35ZM8 35C8 34.448 8.449 34 9 34C9.551 34 10 34.448 10 35C10 35.552 9.551 36 9 36C8.449 36 8 35.552 8 35ZM41 26H21C20.448 26 20 26.447 20 27C20 27.553 20.448 28 21 28H41C41.551 28 42 28.448 42 29V41C42 41.552 41.551 42 41 42H38V31C38 30.447 37.552 30 37 30C36.448 30 36 30.447 36 31V42H32V31C32 30.447 31.552 30 31 30C30.448 30 30 30.447 30 31V42H26V31C26 30.447 25.552 30 25 30C24.448 30 24 30.447 24 31V42H21C20.448 42 20 42.447 20 43C20 43.553 20.448 44 21 44H41C42.654 44 44 42.654 44 41V29C44 27.346 42.654 26 41 26ZM21.793 17.2072C21.402 16.8163 21.402 16.1842 21.793 15.7932C22.184 15.4023 22.816 15.4023 23.207 15.7932L29.707 22.2932C30.098 22.6842 30.098 23.3163 29.707 23.7072C29.512 23.9023 29.256 24.0002 29 24.0002C28.744 24.0002 28.488 23.9023 28.293 23.7072L21.793 17.2072Z" fill="#FF3230"/>
<path d="M15 0H3C1.346 0 0 1.346 0 3V25C0 25.553 0.448 26 1 26H13C13.552 26 14 25.553 14 25C14 24.447 13.552 24 13 24H2V20H13C13.552 20 14 19.553 14 19C14 18.447 13.552 18 13 18H2V14H13C13.552 14 14 13.553 14 13C14 12.447 13.552 12 13 12H2V8H13C13.552 8 14 7.553 14 7C14 6.447 13.552 6 13 6H2V3C2 2.448 2.449 2 3 2H15C15.551 2 16 2.448 16 3V41C16 41.552 15.551 42 15 42H3C2.449 42 2 41.552 2 41V29C2 28.447 1.552 28 1 28C0.448 28 0 28.447 0 29V41C0 42.654 1.346 44 3 44H15C16.654 44 18 42.654 18 41V3C18 1.346 16.654 0 15 0Z" fill="#FF3230"/>
</svg>
