<svg width="39" height="44" viewBox="0 0 39 44" fill="none" xmlns="http://www.w3.org/2000/svg">
<path d="M23.1 34.3C22.5 34.3 22.1 34.6 22 35.2C21.9 35.7 22.3 36.2 22.9 36.3C29.8 37 32 38.6 32 39C32 39.9 26.7 42 17 42C7.3 42 2 39.9 2 39C2 38.6 4.2 37 11.1 36.3C11.6 36.2 12 35.8 12 35.2C11.9 34.7 11.5 34.3 10.9 34.3C6.8 34.7 0 35.9 0 39C0 43 11.1 44 17 44C22.9 44 34 43 34 39C34 35.9 27.2 34.7 23.1 34.3Z" fill="#FF3230"/>
<path d="M35.1 11L37.9 5.4C38.1 5.1 38 4.7 37.9 4.4C37.8 4.1 37.3 4 37 4H29C27.3 4 26 5.3 26 7C26 7.6 25.6 8 25 8H18V5.8C19.2 5.4 20 4.3 20 3C20 1.3 18.7 0 17 0C15.3 0 14 1.3 14 3C14 4.3 14.8 5.4 16 5.8V9C16 9.6 16.4 10 17 10H25C25.4 10 25.7 9.9 26 9.8V17V19C26 19.6 25.6 20 25 20H18V13C18 12.4 17.6 12 17 12C16.4 12 16 12.4 16 13V38C15.4 38 15 38.4 15 39C15 39.6 15.4 40 16 40H18C18.6 40 19 39.6 19 39C19 38.4 18.6 38 18 38V22H25C26.7 22 28 20.7 28 19V18H37C37.3 18 37.7 17.8 37.9 17.5C38.1 17.2 38.1 16.8 37.9 16.5L35.1 11ZM17 2C17.6 2 18 2.4 18 3C18 3.6 17.6 4 17 4C16.4 4 16 3.6 16 3C16 2.4 16.4 2 17 2ZM28 16V7C28 6.4 28.4 6 29 6H35.4L33.1 10.6C33 10.9 33 11.2 33.1 11.5L35.4 16.1H28V16Z" fill="#FF3230"/>
</svg>
