<svg width="128" height="30" viewBox="0 0 128 30" fill="none" xmlns="http://www.w3.org/2000/svg">
<g id="logo">
<path id="Path" d="M13.4411 6.27077C11.7453 6.48479 10.2047 7.29248 9.14038 8.52551C8.04816 9.80238 7.47745 11.3912 7.52761 13.0152C7.53587 14.8301 8.37036 16.5589 9.82849 17.7818C11.2156 19.0653 13.1079 19.7786 15.0753 19.7596V0.00103472H23.4832C27.2544 -0.00588592 30.8597 1.42653 33.4393 3.95671C36.1902 6.3294 37.7475 9.64545 37.74 13.1141C37.8013 16.528 36.3948 19.8261 33.8264 22.2912C31.4063 24.7689 27.9428 26.1671 24.3218 26.1282V19.8387C26.0191 19.6287 27.5612 18.8202 28.6225 17.584C29.6687 16.2912 30.1933 14.7039 30.1063 13.0943C30.1456 11.293 29.3662 9.55827 27.9559 8.30794C26.5636 7.01943 24.6625 6.30571 22.6876 6.33011V26.1085H14.2367C10.4661 26.113 6.86175 24.681 4.28059 22.1528C1.54312 19.7814 -0.00575351 16.474 0.00139242 13.0152C-0.0505876 9.60285 1.35457 6.30788 3.91503 3.83804C6.34006 1.35517 9.81266 -0.04356 13.4411 0.00103472V6.27077Z" fill="#FF3230"/>
<path id="Path_2" d="M66.5084 0V19.8248H69.6773V26.129H41.6128V6.30427L49.1444 0V19.8248H58.7814V0H66.5084Z" fill="white"/>
<path id="Path_3" d="M127.742 0V26.129H119.751V6.3493H109.581V26.129H101.613V7.13757L109.581 0H127.742Z" fill="white"/>
<path id="Path_4" d="M93.2794 0H103.548L90.3184 12.7564L96.0888 19.042V30L84.4138 17.3724L81.0263 20.3997V27.0968H73.5483L73.5483 6.6852L81.0263 0V11.0572L93.2794 0Z" fill="white"/>
</g>
</svg>
