<svg width="44" height="44" viewBox="0 0 44 44" fill="none" xmlns="http://www.w3.org/2000/svg">
<path d="M12 20C12.552 20 13 19.552 13 19V7C13 6.449 13.449 6 14 6H15H19H20C20.551 6 21 6.449 21 7V8C21 8.552 21.448 9 22 9C22.552 9 23 8.552 23 8V7C23 5.346 21.654 4 20 4V2C20.552 2 21 1.552 21 1C21 0.448 20.552 0 20 0H19H15H14C13.448 0 13 0.448 13 1C13 1.552 13.448 2 14 2V4C12.346 4 11 5.346 11 7V19C11 19.552 11.448 20 12 20ZM16 2H18V4H16V2Z" fill="#FF3230"/>
<path d="M25 12C24.911 12 24.768 12 24.618 12C23.915 11.385 23.006 11 22 11C19.794 11 18 12.794 18 15C18 16.858 19.28 18.411 21 18.858V22.764L19.382 26H14.618L13.618 24H18C18.552 24 19 23.552 19 23C19 22.448 18.552 22 18 22H12C11.653 22 11.332 22.18 11.149 22.474C10.967 22.769 10.95 23.137 11.105 23.447L13.105 27.447C13.275 27.786 13.621 28 14 28H20C20.379 28 20.725 27.786 20.895 27.447L22.895 23.447C22.964 23.309 23 23.155 23 23V18.858C23.609 18.7 24.157 18.402 24.618 18H25C29.962 18 34 22.038 34 27V33C34 34.494 32.902 35.736 31.472 35.963L28.8 32.4C28.611 32.148 28.315 32 28 32H7C6.448 32 6 32.448 6 33C6 33.552 6.448 34 7 34H27.5L30.2 37.6C30.388 37.852 30.685 38 31 38C33.757 38 36 35.757 36 33V27C36 21.22 31.516 16.477 25.845 16.043C25.936 15.708 26 15.363 26 15C26 14.669 25.948 14.352 25.872 14.044C32.633 14.496 38 20.126 38 27V33C38 36.86 34.859 40 31 40C30.448 40 30 40.448 30 41V42H6V39C6 38.449 6.449 38 7 38H24C24.552 38 25 37.552 25 37C25 36.448 24.552 36 24 36H7C5.346 36 4 37.346 4 39V43C4 43.552 4.448 44 5 44H31C31.553 44 32 43.552 32 43V41.945C36.494 41.446 40 37.625 40 33V27C40 18.729 33.271 12 25 12ZM20 15C20 13.897 20.897 13 22 13C23.103 13 24 13.897 24 15C24 16.103 23.103 17 22 17C20.897 17 20 16.103 20 15Z" fill="#FF3230"/>
</svg>
