<svg width="19" height="19" viewBox="0 0 19 19" fill="none" xmlns="http://www.w3.org/2000/svg">
<path d="M17.0001 5.99994C17.0706 4.91899 16.6719 3.86008 15.9059 3.09411C15.1399 2.32814 14.081 1.92941 13.0001 1.99994" stroke="#FF3230" stroke-width="2" stroke-linecap="round" stroke-linejoin="round"/>
<path fill-rule="evenodd" clip-rule="evenodd" d="M5.00009 1.99991C5.81277 1.93946 6.61146 2.23606 7.1877 2.8123C7.76394 3.38854 8.06054 4.18723 8.00009 4.99991C8.00009 6.45291 7.00009 6.99991 7.00009 7.99991C7.00009 8.99991 10.0001 11.9999 11.0001 11.9999C12.0001 11.9999 12.5461 10.9999 14.0001 10.9999C14.8128 10.9395 15.6115 11.2361 16.1877 11.8123C16.7639 12.3885 17.0605 13.1872 17.0001 13.9999C16.8549 16.146 15.1462 17.8547 13.0001 17.9999C11.0001 17.9999 9.00009 17.9999 5.00009 13.9999C1.00009 9.99991 1.00009 7.99991 1.00009 5.99991C1.14526 3.85378 2.85395 2.14508 5.00009 1.99991Z" stroke="#FF3230" stroke-width="2" stroke-linecap="round" stroke-linejoin="round"/>
<path d="M14 7C14 5.89543 13.1046 5 12 5" stroke="#FF3230" stroke-width="2" stroke-linecap="round" stroke-linejoin="round"/>
</svg>
