<svg width="44" height="44" viewBox="0 0 44 44" fill="none" xmlns="http://www.w3.org/2000/svg">
<path d="M12 8C13.7 8 15 6.7 15 5C15 4.4 15.4 4 16 4C17.7 4 19 2.7 19 1C19 0.4 18.6 0 18 0C17.4 0 17 0.4 17 1C17 1.6 16.6 2 16 2C14.3 2 13 3.3 13 5C13 5.6 12.6 6 12 6C11.4 6 11 6.4 11 7C11 7.6 11.4 8 12 8ZM17 7C17 7.6 17.4 8 18 8C18.6 8 19 7.6 19 7C19 6.4 19.4 6 20 6C21.7 6 23 4.7 23 3C23 2.4 23.4 2 24 2C24.6 2 25 1.6 25 1C25 0.4 24.6 0 24 0C22.3 0 21 1.3 21 3C21 3.6 20.6 4 20 4C18.3 4 17 5.3 17 7ZM29 14C30.7 14 32 12.7 32 11C32 10.4 32.4 10 33 10C33.6 10 34 9.6 34 9C34 8.4 33.6 8 33 8C31.3 8 30 9.3 30 11C30 11.6 29.6 12 29 12C28.4 12 28 12.4 28 13C28 13.6 28.4 14 29 14ZM33 13C33 13.6 33.4 14 34 14C34.6 14 35 13.6 35 13C35 12.4 35.4 12 36 12C37.7 12 39 10.7 39 9C39 8.4 38.6 8 38 8C37.4 8 37 8.4 37 9C37 9.6 36.6 10 36 10C34.3 10 33 11.3 33 13Z" fill="#FF3230"/>
<path d="M43.9 42.6L42 37.8C39.3 31.1 38 24.1 38 17C38 16.4 37.6 16 37 16H27C26.4 16 26 16.4 26 17V21C26 21.6 26.4 22 27 22H33C33.6 22 34 21.6 34 21C34 20.4 33.6 20 33 20H28V18H36C36.1 25.1 37.5 32 40.1 38.6L41.5 42H29.7L28.2 37.8C25.4 29.9 24 21.6 24 13.2V11C24 10.4 23.6 10 23 10H6.99998C6.39998 10 5.99998 10.4 5.99998 11V13.2C5.99998 21.6 4.59998 29.9 1.79998 37.8L0.0999838 42.7C-0.100016 43 -1.62125e-05 43.3 0.199984 43.6C0.399984 43.8 0.699984 44 0.999984 44H25C25.6 44 26 43.6 26 43C26 42.4 25.6 42 25 42H2.39998L3.69998 38.4C6.49998 30.3 7.99998 21.8 7.99998 13.2V12H22V13.2C22 14.2 22 15.1 22.1 16H11C10.4 16 9.99998 16.4 9.99998 17C9.99998 17.6 10.4 18 11 18H22.2C22.6 25 24 31.8 26.4 38.4L28.1 43.3C28.2 43.7 28.6 44 29 44H43C43.3 44 43.6 43.8 43.8 43.6C44 43.4 44.1 42.9 43.9 42.6Z" fill="#FF3230"/>
</svg>
