<svg width="44" height="44" viewBox="0 0 44 44" fill="none" xmlns="http://www.w3.org/2000/svg">
<path d="M15 19C21.168 19 26 16.364 26 13C26 9.636 21.168 7 15 7C8.832 7 4 9.636 4 13C4 16.364 8.832 19 15 19ZM15 9C20.304 9 24 11.108 24 13C24 14.892 20.304 17 15 17C9.696 17 6 14.892 6 13C6 11.108 9.696 9 15 9Z" fill="#FF3230"/>
<path d="M15 16C18.484 16 22 15.072 22 13C22 10.928 18.484 10 15 10C11.516 10 8 10.928 8 13C8 15.072 11.516 16 15 16ZM15 12C17.764 12 19.439 12.63 19.909 13C19.439 13.37 17.763 14 15 14C12.237 14 10.561 13.37 10.091 13C10.561 12.63 12.236 12 15 12Z" fill="#FF3230"/>
<path d="M41 20H30V13C30 7.953 23.411 4 15 4C6.589 4 0 7.953 0 13V31C0 36.047 6.589 40 15 40H41C42.654 40 44 38.654 44 37V23C44 21.346 42.654 20 41 20ZM24.526 20C25.924 19.319 27.097 18.484 28 17.538V20H24.526ZM42 37C42 37.552 41.551 38 41 38H40V34C40 33.447 39.552 33 39 33C38.448 33 38 33.447 38 34V38H36V36C36 35.447 35.552 35 35 35C34.448 35 34 35.447 34 36V38H32V34C32 33.447 31.552 33 31 33C30.448 33 30 33.447 30 34V38H28V36C28 35.447 27.552 35 27 35C26.448 35 26 35.447 26 36V38H24V34C24 33.447 23.552 33 23 33C22.448 33 22 33.447 22 34V38H20V36C20 35.447 19.552 35 19 35C18.448 35 18 35.447 18 36V38H16V34C16 33.447 15.552 33 15 33C14.448 33 14 33.447 14 34V37.972C13.318 37.942 12.651 37.882 12 37.796V35C12 34.447 11.552 34 11 34C10.448 34 10 34.447 10 35V37.441C9.3 37.279 8.634 37.079 8 36.855V32C8 31.447 7.552 31 7 31C6.448 31 6 31.447 6 32V35.993C5.237 35.594 4.568 35.145 4 34.659V32C4 31.447 3.552 31 3 31C2.563 31 2.202 31.284 2.066 31.674C2.024 31.452 2 31.227 2 31V13C2 9.206 7.953 6 15 6C22.047 6 28 9.206 28 13C28 16.794 22.047 20 15 20C11.381 20 8.009 19.196 5.505 17.735C5.026 17.459 4.415 17.619 4.137 18.095C3.859 18.573 4.02 19.185 4.497 19.463C7.303 21.1 11.033 22 15 22H41C41.551 22 42 22.448 42 23V37Z" fill="#FF3230"/>
</svg>
