<svg xmlns="http://www.w3.org/2000/svg" xmlns:xlink="http://www.w3.org/1999/xlink"><symbol id="arrow-drop-down" viewBox="0 0 8 5">
<path fill-rule="evenodd" clip-rule="evenodd" d="M6.26262 0.292893C6.65314 -0.0976311 7.28631 -0.0976311 7.67683 0.292893C8.06736 0.683417 8.06736 1.31658 7.67683 1.70711L4.70699 4.67696C4.50789 4.87605 4.24573 4.97364 3.9848 4.96974C3.72388 4.97364 3.46172 4.87605 3.26262 4.67696L0.292771 1.70711C-0.0977526 1.31658 -0.0977535 0.683417 0.292771 0.292893C0.683295 -0.0976311 1.31646 -0.0976311 1.70698 0.292893L3.9848 2.57071L6.26262 0.292893Z"/>
</symbol><symbol id="arrow-slider-right" viewBox="0 0 13 8">
<path fill-rule="evenodd" clip-rule="evenodd" d="M1.54468 4.9995H9.13068L7.83768 6.2925C7.44668 6.6825 7.44668 7.3165 7.83768 7.7065C8.03268 7.9015 8.28868 7.9995 8.54468 7.9995C8.80068 7.9995 9.05668 7.9015 9.25168 7.7065L12.2507 4.7065C12.3437 4.6145 12.4167 4.5045 12.4677 4.3815C12.5177 4.2605 12.5437 4.1315 12.5437 4.0025C12.5437 4.0015 12.5447 4.0005 12.5447 3.9995C12.5447 3.8695 12.5177 3.7395 12.4677 3.6175C12.4167 3.4945 12.3437 3.3845 12.2517 3.2925L9.25168 0.2925C8.86068 -0.0975 8.22868 -0.0975 7.83768 0.2925C7.44668 0.6825 7.44668 1.3165 7.83768 1.7065L9.13068 2.9995H1.54468C0.992678 2.9995 0.544678 3.4475 0.544678 3.9995C0.544678 4.5515 0.992678 4.9995 1.54468 4.9995Z"/>
</symbol><symbol id="books" viewBox="0 0 39 44">
<path fill-rule="evenodd" clip-rule="evenodd" d="M29.5 8H35.5C37.2 8 38.5 9.3 38.5 11V41C38.5 42.7 37.2 44 35.5 44H27.5C26.7 44 26 43.7 25.5 43.2C25 43.7 24.3 44 23.5 44H15.5C14.7 44 14 43.7 13.5 43.2C13 43.7 12.3 44 11.5 44H3.5C1.8 44 0.5 42.7 0.5 41V16C0.5 14.3 1.8 13 3.5 13H9.5C10.1 13 10.5 13.4 10.5 14C10.5 14.6 10.1 15 9.5 15H3.5C2.9 15 2.5 15.4 2.5 16V41C2.5 41.6 2.9 42 3.5 42H11.5C12.1 42 12.5 41.6 12.5 41V19H5.5C4.9 19 4.5 18.6 4.5 18C4.5 17.4 4.9 17 5.5 17H12.5V16V3C12.5 1.3 13.8 0 15.5 0H23.5C25.2 0 26.5 1.3 26.5 3V11V12H33.5C34.1 12 34.5 12.4 34.5 13C34.5 13.6 34.1 14 33.5 14H26.5V41C26.5 41.6 26.9 42 27.5 42H35.5C36.1 42 36.5 41.6 36.5 41V11C36.5 10.4 36.1 10 35.5 10H29.5C28.9 10 28.5 9.60001 28.5 9C28.5 8.39999 28.9 8 29.5 8ZM15.5 42H23.5C24.1 42 24.5 41.6 24.5 41V11V3C24.5 2.39999 24.1 2 23.5 2H15.5C14.9 2 14.5 2.39999 14.5 3V16V41C14.5 41.6 14.9 42 15.5 42Z"/>
<path fill-rule="evenodd" clip-rule="evenodd" d="M17.5 6H21.5C22.1 6 22.5 6.39999 22.5 7V21C22.5 21.6 22.1 22 21.5 22H17.5C16.9 22 16.5 21.6 16.5 21V7C16.5 6.39999 16.9 6 17.5 6ZM9.5 29H5.5C4.9 29 4.5 29.4 4.5 30C4.5 30.6 4.9 31 5.5 31H9.5C10.1 31 10.5 30.6 10.5 30C10.5 29.4 10.1 29 9.5 29ZM5.5 32H9.5C10.1 32 10.5 32.4 10.5 33C10.5 33.6 10.1 34 9.5 34H5.5C4.9 34 4.5 33.6 4.5 33C4.5 32.4 4.9 32 5.5 32ZM9.5 35H5.5C4.9 35 4.5 35.4 4.5 36C4.5 36.6 4.9 37 5.5 37H9.5C10.1 37 10.5 36.6 10.5 36C10.5 35.4 10.1 35 9.5 35ZM5.5 38H9.5C10.1 38 10.5 38.4 10.5 39C10.5 39.6 10.1 40 9.5 40H5.5C4.9 40 4.5 39.6 4.5 39C4.5 38.4 4.9 38 5.5 38ZM21.5 39C21.5 38.4 21.1 38 20.5 38H18.5C17.9 38 17.5 38.4 17.5 39C17.5 39.6 17.9 40 18.5 40H20.5C21.1 40 21.5 39.6 21.5 39ZM29.5 40H33.5C34.1 40 34.5 39.6 34.5 39C34.5 38.4 34.1 38 33.5 38H29.5C28.9 38 28.5 38.4 28.5 39C28.5 39.6 28.9 40 29.5 40ZM20.5 20H18.5V8H20.5V20ZM30.5 32C30.5 32.6 30.1 33 29.5 33C28.9 33 28.5 32.6 28.5 32V20C28.5 19.4 28.9 19 29.5 19C30.1 19 30.5 19.4 30.5 20V32ZM34.5 26C34.5 25.4 34.1 25 33.5 25C32.9 25 32.5 25.4 32.5 26V32C32.5 32.6 32.9 33 33.5 33C34.1 33 34.5 32.6 34.5 32V26ZM19.5 26C20.1 26 20.5 26.4 20.5 27V33C20.5 33.6 20.1 34 19.5 34C18.9 34 18.5 33.6 18.5 33V27C18.5 26.4 18.9 26 19.5 26Z"/>
</symbol><symbol id="bulldozer" viewBox="0 0 45 30">
<circle cx="26.5" cy="24" r="1"/>
<circle cx="22.5" cy="24" r="1"/>
<circle cx="18.5" cy="24" r="1"/>
<circle cx="14.5" cy="24" r="1"/>
<circle cx="10.5" cy="24" r="1"/>
<circle cx="6.5" cy="24" r="1"/>
<path d="M2.22501 16.962C2.31701 16.987 2.41001 17 2.50001 17C2.93501 17 3.33501 16.714 3.46101 16.274L5.25401 10H9.26401C9.64501 10 9.98801 10.212 10.158 10.553L11.605 13.448C11.775 13.786 12.121 14 12.5 14H17.5C18.052 14 18.5 13.553 18.5 13V3C18.5 1.346 17.154 0 15.5 0H9.50001C7.84601 0 6.50001 1.346 6.50001 3V5C6.50001 5.553 6.94801 6 7.50001 6C8.05201 6 8.50001 5.553 8.50001 5V3C8.50001 2.448 8.94901 2 9.50001 2H15.5C16.051 2 16.5 2.448 16.5 3V12H13.118L11.947 9.658C11.436 8.636 10.408 8 9.26401 8H4.50001C4.05401 8 3.66101 8.296 3.53901 8.726L1.53901 15.726C1.38701 16.256 1.69401 16.81 2.22501 16.962Z"/>
<path fill-rule="evenodd" clip-rule="evenodd" d="M44.456 29.2258C44.4537 29.2345 44.4513 29.2432 44.449 29.252C44.433 29.311 44.423 29.371 44.398 29.425C44.3776 29.468 44.3493 29.5053 44.3207 29.5429C44.3114 29.5552 44.3021 29.5675 44.293 29.58C44.2852 29.5906 44.2776 29.6013 44.2701 29.612C44.2405 29.6536 44.2112 29.695 44.173 29.73C44.14 29.7607 44.1018 29.7837 44.0627 29.8072C44.0508 29.8143 44.0389 29.8215 44.027 29.829C44.0194 29.8337 44.0119 29.8385 44.0044 29.8432C43.9514 29.8765 43.8996 29.9091 43.84 29.931C43.825 29.937 43.815 29.949 43.799 29.954C43.7 29.985 43.6 30 43.502 30H43.5H41.5C39.309 30 37.215 28.953 35.9 27.199C34.998 25.997 34.5 24.506 34.5 23C34.5 22.447 34.948 22 35.5 22C36.052 22 36.5 22.447 36.5 23C36.5 24.075 36.855 25.141 37.5 25.999C38.439 27.252 39.935 28 41.5 28H42.14L38.44 16.161C38.14 15.201 37.411 14.475 36.5 14.165V19C36.5 19.553 36.052 20 35.5 20H30.963C31.946 21.091 32.5 22.494 32.5 24C32.5 27.309 29.809 30 26.5 30H6.5C3.191 30 0.5 27.309 0.5 24C0.5 20.691 3.191 18 6.5 18H25.5C26.052 18 26.5 18.447 26.5 19C26.5 19.553 26.052 20 25.5 20H6.5C4.294 20 2.5 21.794 2.5 24C2.5 26.206 4.294 28 6.5 28H26.5C28.706 28 30.5 26.206 30.5 24C30.5 22.731 29.917 21.565 28.902 20.801C28.641 20.604 28.521 20.304 28.521 20H28.5V10H21.5C20.948 10 20.5 9.55299 20.5 9C20.5 8.44701 20.948 8 21.5 8H29.5C30.052 8 30.5 8.44701 30.5 9V14H34.5V13C34.5 12.447 34.948 12 35.5 12C37.734 12 39.683 13.433 40.35 15.564L44.454 28.702C44.4636 28.732 44.4646 28.762 44.4655 28.792C44.4662 28.812 44.4668 28.832 44.47 28.852C44.4731 28.8715 44.4784 28.8904 44.4836 28.9092C44.4918 28.9388 44.5 28.9683 44.5 29C44.5 29.0091 44.4974 29.0173 44.4949 29.0255C44.4927 29.0326 44.4905 29.0396 44.49 29.047C44.4874 29.1097 44.4719 29.1671 44.456 29.2258ZM34.5 18V16H30.5V18H34.5Z"/>
<path d="M26.5 11H21.5C20.948 11 20.5 11.447 20.5 12C20.5 12.553 20.948 13 21.5 13H26.5C27.052 13 27.5 12.553 27.5 12C27.5 11.447 27.052 11 26.5 11Z"/>
</symbol><symbol id="colors" viewBox="0 0 44 44">
<path fill-rule="evenodd" clip-rule="evenodd" d="M27.613 6.3028L21.707 12.2078C21.316 12.5988 20.683 12.5988 20.292 12.2078C19.901 11.8168 19.901 11.1848 20.292 10.7938L26.198 4.88879C27.343 3.7428 29.341 3.7428 30.487 4.88879L39.112 13.5128C40.294 14.6958 40.294 16.6188 39.112 17.8018L33.206 23.7068C33.011 23.9018 32.755 23.9998 32.499 23.9998C32.243 23.9998 31.987 23.9018 31.791 23.7068C31.4 23.3158 31.4 22.6838 31.791 22.2928L33.835 20.2498L26.292 12.7068C25.901 12.3158 25.901 11.6838 26.292 11.2928C26.683 10.9018 27.315 10.9018 27.706 11.2928L35.249 18.8358L37.697 16.3878C38.1 15.9858 38.1 15.3288 37.697 14.9268L29.073 6.3028C28.682 5.9118 28.003 5.9118 27.613 6.3028ZM12 35C12 33.346 10.654 32 9 32C7.346 32 6 33.346 6 35C6 36.654 7.346 38 9 38C10.654 38 12 36.654 12 35ZM8 35C8 34.448 8.449 34 9 34C9.551 34 10 34.448 10 35C10 35.552 9.551 36 9 36C8.449 36 8 35.552 8 35ZM41 26H21C20.448 26 20 26.447 20 27C20 27.553 20.448 28 21 28H41C41.551 28 42 28.448 42 29V41C42 41.552 41.551 42 41 42H38V31C38 30.447 37.552 30 37 30C36.448 30 36 30.447 36 31V42H32V31C32 30.447 31.552 30 31 30C30.448 30 30 30.447 30 31V42H26V31C26 30.447 25.552 30 25 30C24.448 30 24 30.447 24 31V42H21C20.448 42 20 42.447 20 43C20 43.553 20.448 44 21 44H41C42.654 44 44 42.654 44 41V29C44 27.346 42.654 26 41 26ZM21.793 17.2072C21.402 16.8163 21.402 16.1842 21.793 15.7932C22.184 15.4023 22.816 15.4023 23.207 15.7932L29.707 22.2932C30.098 22.6842 30.098 23.3163 29.707 23.7072C29.512 23.9023 29.256 24.0002 29 24.0002C28.744 24.0002 28.488 23.9023 28.293 23.7072L21.793 17.2072Z"/>
<path d="M15 0H3C1.346 0 0 1.346 0 3V25C0 25.553 0.448 26 1 26H13C13.552 26 14 25.553 14 25C14 24.447 13.552 24 13 24H2V20H13C13.552 20 14 19.553 14 19C14 18.447 13.552 18 13 18H2V14H13C13.552 14 14 13.553 14 13C14 12.447 13.552 12 13 12H2V8H13C13.552 8 14 7.553 14 7C14 6.447 13.552 6 13 6H2V3C2 2.448 2.449 2 3 2H15C15.551 2 16 2.448 16 3V41C16 41.552 15.551 42 15 42H3C2.449 42 2 41.552 2 41V29C2 28.447 1.552 28 1 28C0.448 28 0 28.447 0 29V41C0 42.654 1.346 44 3 44H15C16.654 44 18 42.654 18 41V3C18 1.346 16.654 0 15 0Z"/>
</symbol><symbol id="flag" viewBox="0 0 39 44">
<path d="M23.1 34.3C22.5 34.3 22.1 34.6 22 35.2C21.9 35.7 22.3 36.2 22.9 36.3C29.8 37 32 38.6 32 39C32 39.9 26.7 42 17 42C7.3 42 2 39.9 2 39C2 38.6 4.2 37 11.1 36.3C11.6 36.2 12 35.8 12 35.2C11.9 34.7 11.5 34.3 10.9 34.3C6.8 34.7 0 35.9 0 39C0 43 11.1 44 17 44C22.9 44 34 43 34 39C34 35.9 27.2 34.7 23.1 34.3Z"/>
<path d="M35.1 11L37.9 5.4C38.1 5.1 38 4.7 37.9 4.4C37.8 4.1 37.3 4 37 4H29C27.3 4 26 5.3 26 7C26 7.6 25.6 8 25 8H18V5.8C19.2 5.4 20 4.3 20 3C20 1.3 18.7 0 17 0C15.3 0 14 1.3 14 3C14 4.3 14.8 5.4 16 5.8V9C16 9.6 16.4 10 17 10H25C25.4 10 25.7 9.9 26 9.8V17V19C26 19.6 25.6 20 25 20H18V13C18 12.4 17.6 12 17 12C16.4 12 16 12.4 16 13V38C15.4 38 15 38.4 15 39C15 39.6 15.4 40 16 40H18C18.6 40 19 39.6 19 39C19 38.4 18.6 38 18 38V22H25C26.7 22 28 20.7 28 19V18H37C37.3 18 37.7 17.8 37.9 17.5C38.1 17.2 38.1 16.8 37.9 16.5L35.1 11ZM17 2C17.6 2 18 2.4 18 3C18 3.6 17.6 4 17 4C16.4 4 16 3.6 16 3C16 2.4 16.4 2 17 2ZM28 16V7C28 6.4 28.4 6 29 6H35.4L33.1 10.6C33 10.9 33 11.2 33.1 11.5L35.4 16.1H28V16Z"/>
</symbol><symbol id="logo-fckp-white" viewBox="0 0 128 30">
<g id="logo">
<path id="Path" d="M13.4411 6.27077C11.7453 6.48479 10.2047 7.29248 9.14038 8.52551C8.04816 9.80238 7.47745 11.3912 7.52761 13.0152C7.53587 14.8301 8.37036 16.5589 9.82849 17.7818C11.2156 19.0653 13.1079 19.7786 15.0753 19.7596V0.00103472H23.4832C27.2544 -0.00588592 30.8597 1.42653 33.4393 3.95671C36.1902 6.3294 37.7475 9.64545 37.74 13.1141C37.8013 16.528 36.3948 19.8261 33.8264 22.2912C31.4063 24.7689 27.9428 26.1671 24.3218 26.1282V19.8387C26.0191 19.6287 27.5612 18.8202 28.6225 17.584C29.6687 16.2912 30.1933 14.7039 30.1063 13.0943C30.1456 11.293 29.3662 9.55827 27.9559 8.30794C26.5636 7.01943 24.6625 6.30571 22.6876 6.33011V26.1085H14.2367C10.4661 26.113 6.86175 24.681 4.28059 22.1528C1.54312 19.7814 -0.00575351 16.474 0.00139242 13.0152C-0.0505876 9.60285 1.35457 6.30788 3.91503 3.83804C6.34006 1.35517 9.81266 -0.04356 13.4411 0.00103472V6.27077Z"/>
<path id="Path_2" d="M66.5084 0V19.8248H69.6773V26.129H41.6128V6.30427L49.1444 0V19.8248H58.7814V0H66.5084Z"/>
<path id="Path_3" d="M127.742 0V26.129H119.751V6.3493H109.581V26.129H101.613V7.13757L109.581 0H127.742Z"/>
<path id="Path_4" d="M93.2794 0H103.548L90.3184 12.7564L96.0888 19.042V30L84.4138 17.3724L81.0263 20.3997V27.0968H73.5483L73.5483 6.6852L81.0263 0V11.0572L93.2794 0Z"/>
</g>
</symbol><symbol id="logo-fckp" viewBox="0 0 128 30">
<g id="logo">
<path id="Path" d="M13.4411 6.27077C11.7453 6.48479 10.2047 7.29248 9.14038 8.52551C8.04816 9.80238 7.47745 11.3912 7.52761 13.0152C7.53587 14.8301 8.37036 16.5589 9.82849 17.7818C11.2156 19.0653 13.1079 19.7786 15.0753 19.7596V0.00103472H23.4832C27.2544 -0.00588592 30.8597 1.42653 33.4393 3.95671C36.1902 6.3294 37.7475 9.64545 37.74 13.1141C37.8013 16.528 36.3948 19.8261 33.8264 22.2912C31.4063 24.7689 27.9428 26.1671 24.3218 26.1282V19.8387C26.0191 19.6287 27.5612 18.8202 28.6225 17.584C29.6687 16.2912 30.1933 14.7039 30.1063 13.0943C30.1456 11.293 29.3662 9.55827 27.9559 8.30794C26.5636 7.01943 24.6625 6.30571 22.6876 6.33011V26.1085H14.2367C10.4661 26.113 6.86175 24.681 4.28059 22.1528C1.54312 19.7814 -0.00575351 16.474 0.00139242 13.0152C-0.0505876 9.60285 1.35457 6.30788 3.91503 3.83804C6.34006 1.35517 9.81266 -0.04356 13.4411 0.00103472V6.27077Z"/>
<path id="Path_2" d="M66.5085 0V19.8248H69.6774V26.129H41.6129V6.30427L49.1445 0V19.8248H58.7815V0H66.5085Z"/>
<path id="Path_3" d="M127.742 0V26.129H119.751V6.3493H109.581V26.129H101.613V7.13757L109.581 0H127.742Z"/>
<path id="Path_4" d="M93.2794 0H103.548L90.3184 12.7564L96.0888 19.042V30L84.4138 17.3724L81.0263 20.3997V27.0968H73.5483L73.5483 6.6852L81.0263 0V11.0572L93.2794 0Z"/>
</g>
</symbol><symbol id="logo-stankin" viewBox="0 0 71 40">
<path d="M28.2189 18.8635H26.5158C26.5158 18.7988 26.5158 18.7342 26.5158 18.6588V7.26097C26.5202 7.19035 26.5068 7.11974 26.4771 7.05571C26.4473 6.99167 26.402 6.93629 26.3455 6.89469L21.3531 2.70401C21.3032 2.65017 21.2411 2.60948 21.1721 2.58551V33.8271H18.2981C18.2826 33.7817 18.2826 33.7324 18.2981 33.687C18.2981 31.3385 18.2981 29.0008 18.2981 26.6631C18.2981 26.3938 18.2981 26.1244 18.2981 25.8551C18.2981 24.0776 18.2981 22.2893 18.2981 20.4686C18.2981 18.314 18.2981 16.2564 18.2981 14.1557V12.1304C18.2981 11.0531 18.2981 9.97576 18.2981 8.83383V8.61837L13.6995 7.34716V33.6978H10.9C10.9 33.6978 10.9 33.6116 10.9 33.5578C10.9 32.836 10.9 32.1142 10.9 31.4032C10.9 30.0673 10.9 28.7423 10.9 27.4064C10.9 26.6846 10.9 25.9736 10.9 25.2518C10.9 23.7975 10.9 22.3539 10.9 20.9426C10.9 19.5314 10.9 18.1093 10.9 16.6873C10.9205 16.6207 10.9205 16.5493 10.9 16.4826C10.8468 16.4826 10.8148 16.4826 10.7829 16.558C9.7883 17.331 8.83597 18.1582 7.9301 19.0358C6.96742 19.9707 6.05762 20.9598 5.20505 21.9984C3.92614 23.5394 2.82609 25.2238 1.92648 27.0186C1.4 28.0184 0.982408 29.0732 0.681052 30.1643C0.465186 31.0259 0.386137 31.9169 0.446868 32.8037C0.52106 34.0412 1.04417 35.2075 1.91584 36.0786C2.60507 36.7619 3.39513 37.3325 4.25768 37.77C5.3116 38.2887 6.43364 38.6515 7.58947 38.8473C8.38717 38.9996 9.19474 39.0932 10.0058 39.1274C10.6445 39.1274 11.2938 39.1274 11.9325 39.1274C12.8802 39.0862 13.8253 38.9963 14.764 38.8581C16.2845 38.6215 17.7884 38.2868 19.2667 37.8562C20.3312 37.533 21.4489 37.1559 22.5134 36.7789C22.6014 36.7636 22.6914 36.7636 22.7795 36.7789H25.8452C25.8452 36.8543 25.76 36.8543 25.7281 36.8651C24.3549 37.4468 22.9711 37.9424 21.5553 38.4056C20.2275 38.8394 18.8771 39.199 17.5103 39.4829C16.7013 39.6445 15.8817 39.7738 15.0621 39.8707C14.2424 39.9677 13.476 40.0323 12.6883 40.0646C12.1667 40.0646 11.6238 40.0646 11.1448 40.0646C10.6658 40.0646 9.96324 40.0646 9.37778 39.9354C8.66083 39.8564 7.94969 39.7304 7.24884 39.5583C5.984 39.2651 4.77559 38.7628 3.67222 38.0716C2.5198 37.3621 1.55244 36.3831 0.851367 35.2168C0.514947 34.6556 0.277242 34.0396 0.148816 33.3962C0.00239804 32.6882 -0.0477411 31.9633 -0.000209598 31.2416C0.12585 29.9018 0.445027 28.588 0.94717 27.3418C1.63022 25.6322 2.50149 24.006 3.54448 22.4939C4.58022 20.9738 5.72589 19.5335 6.97208 18.1848C8.12764 16.8886 9.35369 15.6585 10.6445 14.5004C10.6872 14.4682 10.7212 14.4257 10.7435 14.3768C10.7658 14.3279 10.7757 14.2741 10.7722 14.2203C10.7722 11.8718 10.7722 9.5233 10.7722 7.17479C10.7669 7.1115 10.7829 7.04824 10.8177 6.99539C10.8525 6.94254 10.904 6.90323 10.9638 6.88392L13.5186 5.62349C13.5734 5.59676 13.6334 5.58288 13.6942 5.58288C13.755 5.58288 13.8151 5.59676 13.8699 5.62349L18.0958 6.92701H18.2342L21.2892 0L22.3537 0.87261L26.3561 4.1045C26.395 4.13215 26.4262 4.16947 26.4467 4.21286C26.4672 4.25626 26.4763 4.30428 26.4732 4.35228C26.4732 4.93402 26.5477 5.52653 26.5903 6.10827C26.6542 6.10827 26.6861 6.04363 26.7287 6.00054L28.1231 4.47078C28.1544 4.42701 28.194 4.39011 28.2398 4.36234C28.2855 4.33456 28.3364 4.31648 28.3892 4.30918L30.2308 4.13682L31.391 4.05063L33.3177 3.95368C34.2758 3.95368 35.2338 3.88904 36.1812 3.95368L37.895 4.02909C38.6827 4.02909 39.481 4.15836 40.2687 4.26609C41.3434 4.41673 42.4094 4.62531 43.4622 4.89092L43.6112 5.64503L42.7915 5.80663L40.1197 6.31295L39.3001 6.46378C39.2235 6.48537 39.1425 6.48537 39.0659 6.46378C38.6032 6.31568 38.1299 6.20402 37.6501 6.12981C37.3361 6.08152 37.02 6.04916 36.7028 6.03286C36.3728 6.03286 36.0428 6.03286 35.7128 6.03286C35.2461 6.04513 34.7805 6.0847 34.3183 6.15136C34.0096 6.15136 33.701 6.25909 33.3923 6.32373H33.2432V18.8635H32.4129V5.86049H28.2189V18.8635Z"/>
<path d="M55.6505 27.9236V22.0738C55.6463 22.0169 55.6557 21.9597 55.6779 21.9072C55.7002 21.8547 55.7346 21.8084 55.7783 21.7722L57.4814 20.1886C57.4814 20.1886 57.5453 20.1132 57.6198 20.1024V23.3343L57.9178 23.065L60.8984 20.2748C60.9252 20.2444 60.958 20.2201 60.9946 20.2034C61.0313 20.1867 61.071 20.178 61.1113 20.1778H62.6654V25.8982H63.6021V20.1886H65.582V23.0434H68.1261C68.1261 22.8495 68.1261 22.6556 68.1261 22.4509V20.027C68.1988 20.0546 68.2617 20.1033 68.3071 20.167L70.0102 21.7291C70.0416 21.7574 70.0664 21.7924 70.0829 21.8315C70.0995 21.8705 70.1074 21.9128 70.106 21.9553V27.6219C70.1209 27.66 70.1209 27.7023 70.106 27.7404H68.1261V24.8856H65.5927V27.6866C65.5927 27.7404 65.5075 27.6866 65.4649 27.6866C64.0386 27.6866 62.6015 27.6866 61.2071 27.6866C61.0511 27.6973 60.8946 27.6973 60.7387 27.6866V23.2373L55.6505 27.9236Z"/>
<path d="M26.5053 25.9521V27.7835C26.1434 27.7835 25.7921 27.7835 25.4408 27.7835C25.0154 27.7335 24.5994 27.621 24.206 27.4495C23.814 27.2705 23.4542 27.0266 23.1416 26.7277C22.5423 26.1624 22.1644 25.3975 22.0771 24.5731C21.9987 24.0377 22.0276 23.4918 22.1623 22.9679C22.2994 22.4378 22.5625 21.9496 22.9287 21.5459C23.4553 20.9729 24.1362 20.5684 24.8873 20.3824C25.2353 20.2941 25.593 20.2507 25.9518 20.2532H36.4049C36.4606 20.2376 36.5195 20.2376 36.5752 20.2532L36.4475 20.4148C35.9472 20.9211 35.4575 21.4274 34.9678 21.9445C34.9332 21.9838 34.8905 22.0147 34.8426 22.0352C34.7948 22.0557 34.743 22.0652 34.6911 22.063C33.7118 22.063 32.7325 22.063 31.7531 22.063H31.5509V27.7942H29.6561V22.0846C29.5923 22.0846 29.5497 22.0846 29.4965 22.0846H26.2179C25.7963 22.0686 25.3769 22.1535 24.9938 22.3323C24.5774 22.52 24.2412 22.8525 24.0464 23.2696C23.8698 23.6562 23.8328 24.0932 23.9417 24.5046C24.0506 24.9159 24.2986 25.2757 24.6425 25.5211C25.0639 25.8372 25.5764 26.0038 26.1008 25.9951L26.5053 25.9521Z"/>
<path d="M38.1506 24.9071V22.9249L32.5728 27.9343C32.509 27.9343 32.5728 27.8481 32.5728 27.805V25.4242C32.5715 25.3817 32.5794 25.3394 32.5959 25.3003C32.6125 25.2612 32.6373 25.2263 32.6686 25.198L37.4055 20.8888L38.0974 20.2639C38.0974 20.2639 38.1932 20.167 38.2784 20.167H40.2051V27.7081H38.1613V26.7062H34.574C34.574 26.6415 34.574 26.62 34.6485 26.5877L36.4688 24.9286C36.4998 24.8986 36.5366 24.8754 36.5769 24.8606C36.6172 24.8457 36.6602 24.8396 36.703 24.8425L38.1506 24.9071Z"/>
<path d="M47.5605 27.7727H45.57V24.9287H43.0472V27.7727H41.0566C41.0412 27.7163 41.0412 27.6568 41.0566 27.6004V22.02C41.051 21.9739 41.0569 21.9271 41.0736 21.8838C41.0903 21.8406 41.1174 21.8022 41.1524 21.7722C41.7698 21.2228 42.3766 20.6949 42.9833 20.1024L43.0685 20.027V23.0757H45.5913V20.2209H47.5712C47.5925 20.3502 47.5925 27.5465 47.5605 27.7727Z"/>
<path d="M52.6488 23.8191L53.4152 24.5516L54.171 25.2626C54.1933 25.281 54.2114 25.3039 54.2243 25.3299C54.2371 25.3559 54.2444 25.3844 54.2455 25.4135V28.0097L51.2224 25.198C50.9456 25.4673 50.6689 25.7151 50.3921 25.9736C50.3389 26.0275 50.3921 26.0814 50.3921 26.146V27.8158H48.4228C48.4071 27.7522 48.4071 27.6856 48.4228 27.6219V22.0631C48.4207 22.0037 48.4321 21.9447 48.4561 21.8906C48.4801 21.8364 48.5161 21.7885 48.5612 21.7506L50.2963 20.1132H50.3602V23.345C50.5398 23.2015 50.7105 23.0468 50.8711 22.8818L53.0001 20.8134L53.4897 20.3502C53.5165 20.3198 53.5493 20.2955 53.586 20.2788C53.6227 20.2621 53.6624 20.2534 53.7026 20.2532H56.2361C55.0545 21.4382 53.841 22.6233 52.6488 23.8191Z"/>
<path d="M46.7622 18.8634H44.2394C44.2475 18.8084 44.2695 18.7565 44.3032 18.7126C44.7973 17.8265 45.2003 16.8916 45.5061 15.9224C45.6758 15.3528 45.7934 14.7686 45.8574 14.1772C45.8999 13.7005 45.8999 13.221 45.8574 12.7444C45.7874 11.7693 45.5193 10.8194 45.0697 9.95418C45.0697 9.85722 44.9739 9.76026 44.9206 9.65253L45.4848 9.32935C45.5487 9.32935 45.6019 9.32935 45.6551 9.38321L46.6344 9.95418L48.1247 10.816C48.1593 10.8335 48.189 10.8594 48.2113 10.8913C48.2336 10.9233 48.2477 10.9603 48.2524 10.9992C48.3268 11.6643 48.3482 12.3343 48.3163 13.0029C48.2688 13.9503 48.1188 14.8896 47.8692 15.8039C47.6048 16.8328 47.2485 17.8352 46.8048 18.7988L46.7622 18.8634Z"/>
<path d="M37.4587 7.54112L39.1406 7.21793L41.4292 6.78701L44.0372 6.29145L44.2501 3.23193L45.8148 6.18372L47.2732 6.00058L48.6144 5.82822C48.7559 5.81281 48.8987 5.81281 49.0402 5.82822C49.0402 5.82822 49.1466 5.77435 49.1573 5.82822L47.7841 6.57155L46.4748 7.28257L46.3364 7.35798L47.7415 9.71726L45.2613 8.55378L44.7078 9.16783L42.8024 11.2362C42.8024 11.2362 42.7385 11.3655 42.6427 11.3332L43.7072 7.95049H43.2388L41.1099 7.82121L38.768 7.67039L37.8207 7.54112C37.7251 7.53044 37.6288 7.53044 37.5333 7.54112H37.4587Z"/>
<path d="M23.8761 29.8734H24.4828V32.3835C24.3127 32.3945 24.142 32.3945 23.9719 32.3835V30.8214L23.6312 31.8017C23.5073 31.8127 23.3826 31.8127 23.2587 31.8017L22.9181 30.8106V32.3835C22.7479 32.3942 22.5773 32.3942 22.4071 32.3835V29.8841C22.5058 29.868 22.6064 29.868 22.7052 29.8841H23.0351L23.4184 31.1015L23.8761 29.8734Z"/>
<path d="M50.0301 30.4767H51.3181V31.9203C51.3181 31.9741 51.4245 31.9203 51.4671 31.9741V32.8467C51.3221 32.863 51.1757 32.863 51.0307 32.8467V32.3943H50.1578C50.1578 32.5343 50.1578 32.6851 50.1578 32.836H49.7427V31.9634C49.8491 31.9634 49.8811 31.8664 49.9023 31.7802C50.0058 31.4306 50.0596 31.0679 50.062 30.7029L50.0301 30.4767Z"/>
<path d="M54.0964 32.3189V33.0514C53.93 33.0676 53.7625 33.0676 53.5961 33.0514V30.4767H54.0751C54.0751 30.4767 54.0751 30.5844 54.0751 30.6383L54.2241 30.5306C54.2907 30.4801 54.368 30.4461 54.4499 30.4313C54.5317 30.4166 54.6159 30.4214 54.6956 30.4455C54.7753 30.4696 54.8483 30.5123 54.9088 30.5701C54.9692 30.6279 55.0154 30.6992 55.0437 30.7783C55.1557 31.0469 55.1889 31.3423 55.1396 31.6294C55.1217 31.8242 55.0518 32.0104 54.9373 32.1681C54.8565 32.2914 54.7331 32.3797 54.5913 32.4156C54.4495 32.4514 54.2995 32.4323 54.1709 32.362C54.1709 32.362 54.1496 32.3189 54.0964 32.3189Z"/>
<path d="M61.1432 33.7732C61.2548 33.6823 61.3861 33.6196 61.5264 33.5901C61.6333 33.5685 61.7444 33.5844 61.8412 33.6354C61.938 33.6863 62.0147 33.7691 62.0586 33.8702C62.2036 34.1672 62.2449 34.5052 62.1757 34.829C62.1565 35.0136 62.0864 35.189 61.9735 35.3353C61.8853 35.4495 61.7606 35.5292 61.6208 35.5607C61.481 35.5921 61.3347 35.5734 61.207 35.5077H61.1432V36.251H60.6748V33.6439H61.1538C61.1538 33.6439 61.1112 33.7301 61.1432 33.7732Z"/>
<path d="M49.5724 30.4659C49.3808 31.0692 49.1892 31.6402 49.0083 32.2112C48.9231 32.4374 48.8486 32.6744 48.7741 32.9114C48.7741 32.976 48.7741 33.0515 48.7741 33.0945C48.7962 33.1073 48.8206 33.1151 48.8459 33.1176C48.8712 33.1201 48.8967 33.1172 48.9208 33.1091C48.9449 33.101 48.967 33.0878 48.9858 33.0705C49.0045 33.0531 49.0194 33.0319 49.0296 33.0084C49.0296 32.9437 49.0296 32.8683 49.0296 32.7929C49.1461 32.7768 49.2643 32.7768 49.3808 32.7929C49.3949 32.8608 49.3955 32.9309 49.3828 32.999C49.37 33.0672 49.3441 33.1321 49.3066 33.1902C49.269 33.2482 49.2205 33.2982 49.1638 33.3372C49.1072 33.3763 49.0434 33.4036 48.9763 33.4177C48.8638 33.4393 48.7482 33.4393 48.6357 33.4177C48.521 33.3943 48.4188 33.3291 48.3483 33.2346C48.2844 33.1484 48.2312 33.0515 48.0822 33.1053C48.1567 32.8899 48.2099 32.6959 48.2844 32.5128C48.3165 32.4297 48.3165 32.3374 48.2844 32.2543L47.9012 30.6383C47.8842 30.5895 47.8842 30.5363 47.9012 30.4875C48.0678 30.4761 48.2349 30.4761 48.4015 30.4875L48.7741 31.7048L49.0083 30.8645C49.0083 30.7676 49.0615 30.6706 49.0828 30.5844C49.1041 30.4983 49.0828 30.4983 49.1892 30.4983L49.5724 30.4659Z"/>
<path d="M51.8716 34.1718L52.2655 33.0083C52.4499 32.9976 52.6347 32.9976 52.819 33.0083L52.5423 33.784L52.1591 34.9798C52.1591 35.0444 52.1058 35.109 52.0739 35.1629C52.0279 35.2883 51.9428 35.3952 51.8313 35.4671C51.7199 35.5391 51.5883 35.5722 51.4565 35.5615C51.3365 35.5849 51.213 35.5812 51.0946 35.5507V35.0121C51.0946 35.0121 51.1797 35.0121 51.2117 35.0121C51.3099 35.0337 51.4115 35.0337 51.5097 35.0121C51.6588 35.0121 51.6694 34.9475 51.6055 34.8074L50.9243 33.213C50.9074 33.1532 50.9074 33.0897 50.9243 33.0299C51.0839 33.0299 51.2543 33.0299 51.4139 33.0299C51.5736 33.0299 51.4991 33.0945 51.5204 33.1376C51.6481 33.4608 51.7758 33.7732 51.9142 34.0964L51.8716 34.1718Z"/>
<path d="M58.6844 30.4982C58.696 30.4925 58.7087 30.4895 58.7216 30.4895C58.7345 30.4895 58.7473 30.4925 58.7589 30.4982C59.0888 30.4982 59.4082 30.4982 59.7382 30.4982C59.8192 30.499 59.8983 30.5232 59.9662 30.5679C60.0342 30.6127 60.0881 30.6761 60.1216 30.7508C60.1551 30.8254 60.1669 30.9082 60.1556 30.9894C60.1442 31.0706 60.1102 31.1469 60.0575 31.2092C60.029 31.2548 59.997 31.298 59.9617 31.3385C60.0687 31.3961 60.1502 31.4925 60.1897 31.6085C60.2292 31.7244 60.2238 31.8512 60.1746 31.9633C60.1563 32.0794 60.0961 32.1844 60.0056 32.2581C59.9152 32.3317 59.8009 32.3687 59.685 32.3619H58.6205L58.6844 30.4982Z"/>
<path d="M32.328 32.3943V30.4983C32.328 30.4983 32.4132 30.4983 32.4557 30.4983C32.7538 30.4983 33.0518 30.4983 33.3499 30.4983C33.6479 30.4983 33.6692 30.4983 33.7331 30.7245C33.7692 30.8062 33.7833 30.896 33.774 30.985C33.7646 31.0739 33.7321 31.1587 33.6799 31.2309L33.5734 31.3494C33.6721 31.3954 33.7528 31.4733 33.8029 31.5708C33.853 31.6683 33.8696 31.7799 33.8502 31.888C33.8478 32.0207 33.796 32.1476 33.7053 32.2435C33.6145 32.3393 33.4914 32.397 33.3605 32.4051L32.328 32.3943Z"/>
<path d="M38.7574 31.3277L38.4487 31.8664L38.14 32.3943H37.7249V30.4874C37.8874 30.4658 38.052 30.4658 38.2145 30.4874V31.4247C38.3635 31.1661 38.5232 30.9184 38.6722 30.6706V30.6059C38.6869 30.5595 38.7175 30.5198 38.7585 30.4942C38.7994 30.4685 38.8481 30.4585 38.8958 30.4659H39.1938V32.3835C39.0379 32.3945 38.8814 32.3945 38.7255 32.3835V31.3062L38.7574 31.3277Z"/>
<path d="M58.2052 34.4735C58.2859 34.5202 58.3538 34.5863 58.4032 34.666C58.4525 34.7457 58.4816 34.8364 58.4879 34.9302C58.4942 35.024 58.4775 35.1179 58.4394 35.2036C58.4012 35.2894 58.3427 35.3642 58.2691 35.4215C58.2006 35.4736 58.1199 35.507 58.0349 35.5185C57.6837 35.5185 57.343 35.5185 56.9705 35.5185C56.9705 35.3677 56.9705 33.881 56.9705 33.6117H57.9817C58.048 33.6101 58.1136 33.6247 58.1732 33.6541C58.2328 33.6835 58.2845 33.7269 58.3241 33.7807C58.3637 33.8345 58.39 33.8971 58.4008 33.9633C58.4116 34.0294 58.4066 34.0973 58.3862 34.1611C58.3577 34.281 58.2947 34.3897 58.2052 34.4735Z"/>
<path d="M69.031 30.4767H69.4887V31.4678C69.5632 31.4678 69.5739 31.3601 69.6058 31.317C69.7442 31.0907 69.8826 30.8537 70.0103 30.6167C70.0316 30.5627 70.071 30.518 70.1216 30.4904C70.1722 30.4629 70.2308 30.4542 70.2871 30.4659H70.5532V32.3943H70.0848C70.0848 32.028 70.0848 31.6617 70.0848 31.317C69.9039 31.6186 69.7229 31.931 69.5526 32.2434C69.5309 32.306 69.4879 32.3588 69.4314 32.3923C69.3749 32.4258 69.3085 32.438 69.2439 32.4266H69.0523L69.031 30.4767Z"/>
<path d="M40.2158 30.466V31.4355L40.7906 30.466H41.2483V32.3836H40.7799V31.3063C40.5402 31.6526 40.3199 32.0123 40.1199 32.3836H39.7155V30.4767C39.8817 30.461 40.0489 30.4574 40.2158 30.466Z"/>
<path d="M65.6885 35.5507H65.2201V34.4734C65.1349 34.4734 65.1349 34.5489 65.1136 34.592C64.9433 34.872 64.7943 35.1521 64.6346 35.4322C64.6226 35.4701 64.598 35.5026 64.565 35.5241C64.532 35.5457 64.4927 35.5551 64.4537 35.5507H64.1663V33.6439C64.322 33.6276 64.4789 33.6276 64.6346 33.6439V34.5812C64.8567 34.2846 65.056 33.9713 65.2307 33.6439H65.6885V35.5507Z"/>
<path d="M55.0012 35.5508V33.6332C55.1572 33.6224 55.3136 33.6224 55.4696 33.6332V34.6028C55.5909 34.4441 55.6978 34.2746 55.7889 34.0964C55.8847 33.9456 55.9699 33.784 56.0657 33.6224H56.5234V35.5508H56.0657C56.0495 35.4365 56.0495 35.3204 56.0657 35.2061C56.0657 35.0768 56.0657 34.9583 56.0657 34.829V34.4196C55.8634 34.7644 55.6825 35.0768 55.5228 35.3892C55.5011 35.4518 55.4582 35.5045 55.4016 35.538C55.3451 35.5716 55.2787 35.5837 55.2141 35.5723L55.0012 35.5508Z"/>
<path d="M47.1881 34.4735L46.8261 35.1091C46.7623 35.2276 46.6878 35.3353 46.6345 35.4538C46.62 35.494 46.5913 35.5272 46.5539 35.5471C46.5165 35.567 46.4732 35.5722 46.4323 35.5616C46.3407 35.5774 46.2471 35.5774 46.1555 35.5616V33.6332C46.315 33.6224 46.475 33.6224 46.6345 33.6332V34.6028C46.7534 34.4461 46.8601 34.2804 46.9539 34.1072L47.2306 33.6224H47.6777V35.5508H47.22V34.4735H47.1881Z"/>
<path d="M37.0543 33.6332H37.5226V34.6028L38.0868 33.6224H38.5552V35.5508H38.0868V34.4735C38.0123 34.4735 38.0017 34.4735 37.991 34.5381C37.8207 34.8398 37.6504 35.1306 37.4907 35.4323C37.4788 35.4673 37.4554 35.497 37.4244 35.5167C37.3934 35.5363 37.3567 35.5445 37.3204 35.54H37.0223L37.0543 33.6332Z"/>
<path d="M49.6469 35.5507H49.1679V34.4734C49.0083 34.7751 48.8486 35.066 48.6783 35.3568L48.6038 35.4861C48.5964 35.5102 48.58 35.5304 48.5582 35.5424C48.5363 35.5545 48.5107 35.5575 48.4867 35.5507H48.178V33.6439C48.3164 33.6439 48.4654 33.6439 48.6357 33.6439V34.6243C48.6775 34.5941 48.7106 34.5532 48.7315 34.5058L49.1679 33.7517C49.18 33.7174 49.2039 33.6888 49.2352 33.671C49.2665 33.6532 49.3031 33.6474 49.3383 33.6547H49.6789L49.6469 35.5507Z"/>
<path d="M65.4543 31.5863H64.9327V32.3835C64.7663 32.3997 64.5988 32.3997 64.4324 32.3835V30.4767H64.9327V31.1231H65.4543V30.4767H65.9971V32.3943H65.5075L65.4543 31.5863Z"/>
<path d="M53.1597 32.3943H52.6807C52.6807 32.3404 52.6807 32.2866 52.6807 32.2219C52.6237 32.2805 52.5557 32.3268 52.4808 32.3583C52.4058 32.3897 52.3254 32.4056 52.2442 32.4051C52.1357 32.4153 52.0271 32.3878 51.9361 32.3271C51.8451 32.2664 51.7774 32.1761 51.7439 32.0711C51.6738 31.9208 51.6645 31.7487 51.7183 31.5916C51.772 31.4346 51.8844 31.305 52.0313 31.2308C52.1397 31.1823 52.2544 31.1496 52.372 31.1339H52.7339C52.7339 30.9615 52.6594 30.8969 52.4891 30.8861C52.3335 30.8595 52.1737 30.882 52.0313 30.9507C51.9675 30.9507 51.9142 31.0261 51.8291 30.9507C51.7439 30.8753 51.8291 30.8969 51.8291 30.8753V30.4983C52.1704 30.3719 52.5415 30.3531 52.8936 30.4444C52.9959 30.4705 53.0868 30.53 53.1523 30.6138C53.2177 30.6976 53.254 30.8009 53.2555 30.9076C53.2555 31.2416 53.2555 31.5863 53.2555 31.9849L53.1597 32.3943Z"/>
<path d="M62.0693 31.554H61.0048C60.9957 31.606 60.9975 31.6594 61.0101 31.7106C61.0227 31.7619 61.0459 31.8099 61.078 31.8515C61.1101 31.8932 61.1505 31.9275 61.1966 31.9524C61.2426 31.9772 61.2934 31.9919 61.3454 31.9957C61.5287 32.0131 61.7124 31.9675 61.867 31.8664L62.0373 31.7587C62.0475 31.9165 62.0475 32.0748 62.0373 32.2327C62.0373 32.2327 62.0373 32.2327 62.0373 32.3081C61.8525 32.409 61.6459 32.4618 61.4359 32.4618C61.2259 32.4618 61.0193 32.409 60.8345 32.3081C60.6577 32.1756 60.5393 31.9784 60.5045 31.7587C60.4617 31.5381 60.4617 31.3113 60.5045 31.0907C60.5361 30.9723 60.5923 30.862 60.6694 30.7673C60.7465 30.6726 60.8426 30.5957 60.9515 30.5416C61.0603 30.4876 61.1793 30.4577 61.3005 30.4539C61.4216 30.4501 61.5422 30.4726 61.6541 30.5198C61.7542 30.5598 61.8422 30.6255 61.9094 30.7106C61.9766 30.7956 62.0207 30.897 62.0373 31.0045C62.0852 31.1835 62.0961 31.3706 62.0693 31.554Z"/>
<path d="M28.9749 33.6331H29.4858V35.5507C29.3202 35.5791 29.1511 35.5791 28.9855 35.5507V34.7751H28.4639V35.5507C28.2978 35.5723 28.1297 35.5723 27.9636 35.5507V33.6439C28.1264 33.6276 28.2905 33.6276 28.4533 33.6439V34.2903C28.6342 34.2903 28.7939 34.2903 28.9749 34.2903V33.6331Z"/>
<path d="M26.5479 31.4571C26.5553 31.6276 26.5224 31.7975 26.4521 31.9527C26.3959 32.1112 26.2889 32.2462 26.148 32.336C26.0072 32.4258 25.8407 32.4653 25.6751 32.4482C25.482 32.4467 25.2961 32.3735 25.1528 32.2424C25.0096 32.1113 24.9189 31.9315 24.898 31.7372C24.8369 31.456 24.8629 31.1626 24.9725 30.8969C25.0253 30.7552 25.1202 30.6336 25.2441 30.5487C25.368 30.4638 25.5148 30.4198 25.6644 30.4229C25.8685 30.4046 26.0715 30.4676 26.2305 30.5983C26.3895 30.729 26.4919 30.9173 26.516 31.1231C26.5377 31.2331 26.5484 31.345 26.5479 31.4571Z"/>
<path d="M53.5323 34.2796H54.0538V33.644C54.224 33.6333 54.3946 33.6333 54.5648 33.644V35.5508C54.3984 35.5671 54.2309 35.5671 54.0645 35.5508V34.7643H53.5429V35.5508C53.3768 35.5723 53.2087 35.5723 53.0426 35.5508V33.6332H53.5323V34.2796Z"/>
<path d="M44.3458 31.4463C44.322 31.1951 44.386 30.9435 44.5268 30.7352C44.5884 30.6429 44.6706 30.5665 44.7667 30.5123C44.8629 30.458 44.9703 30.4274 45.0803 30.4228C45.2518 30.4033 45.4252 30.4331 45.5806 30.509C45.6908 30.5722 45.7848 30.6606 45.8551 30.7673C45.9253 30.874 45.9699 30.9958 45.9851 31.1231C46.0438 31.3673 46.0438 31.6222 45.9851 31.8664C45.9419 32.0499 45.8333 32.2108 45.68 32.3182C45.5268 32.4256 45.3397 32.4719 45.1548 32.4481C44.9449 32.4425 44.7457 32.3534 44.6003 32.2002C44.4548 32.0469 44.3749 31.8419 44.3777 31.6294C44.3619 31.5694 44.3512 31.5081 44.3458 31.4463Z"/>
<path d="M30.3055 31.4355C30.2842 31.188 30.3482 30.9406 30.4865 30.7353C30.552 30.6444 30.6366 30.5693 30.7341 30.5153C30.8316 30.4613 30.9397 30.4298 31.0506 30.4229C31.153 30.4077 31.257 30.4077 31.3593 30.4229C31.519 30.461 31.6627 30.5492 31.7698 30.675C31.8768 30.8008 31.9418 30.9577 31.9554 31.1231C32.014 31.3564 32.014 31.6008 31.9554 31.8341C31.9147 32.0176 31.8086 32.1794 31.6574 32.2887C31.5062 32.398 31.3205 32.4471 31.1358 32.4267C30.9249 32.4239 30.7235 32.3378 30.5743 32.1869C30.4252 32.036 30.3402 31.8321 30.3375 31.6187L30.3055 31.4355Z"/>
<path d="M25.8134 34.7105H24.7489C24.7489 35.0337 25.0363 35.2276 25.4408 35.1091C25.5288 35.0878 25.6096 35.0432 25.675 34.9798C25.675 34.9798 25.7495 34.9798 25.7921 34.9798C25.8021 35.015 25.8021 35.0524 25.7921 35.0876V35.4754C25.5276 35.6166 25.2247 35.6658 24.9299 35.6155C24.7781 35.5956 24.6355 35.5308 24.52 35.4292C24.4045 35.3276 24.3212 35.1938 24.2805 35.0445C24.1687 34.7423 24.1687 34.4094 24.2805 34.1072C24.369 33.9108 24.5298 33.757 24.7285 33.6785C24.9273 33.6001 25.1484 33.6031 25.345 33.6871C25.4201 33.7211 25.4868 33.7716 25.5402 33.835C25.5936 33.8983 25.6324 33.9729 25.6537 34.0534C25.7513 34.2589 25.8056 34.4827 25.8134 34.7105Z"/>
<path d="M67.9877 34.7104C68.0516 35.0552 68.2432 35.1952 68.5625 35.1306C68.6944 35.1144 68.8195 35.0622 68.9245 34.9798C68.943 34.9718 68.9629 34.9676 68.983 34.9676C69.0031 34.9676 69.023 34.9718 69.0415 34.9798C69.0415 35.1414 69.0415 35.3029 69.0415 35.4753C68.8824 35.5704 68.7042 35.6285 68.5201 35.6452C68.336 35.662 68.1505 35.6371 67.9771 35.5723C67.8662 35.54 67.7646 35.481 67.6812 35.4004C67.5978 35.3197 67.5349 35.2197 67.4981 35.109C67.4235 34.9395 67.385 34.756 67.385 34.5704C67.385 34.3848 67.4235 34.2013 67.4981 34.0317C67.5941 33.843 67.758 33.6986 67.956 33.6285C68.1541 33.5583 68.3711 33.5677 68.5625 33.6547C68.6539 33.6987 68.7329 33.7651 68.7923 33.8479C68.8518 33.9307 68.8899 34.0272 68.9032 34.1287C68.9413 34.3207 68.9413 34.5184 68.9032 34.7104H67.8387H67.9877Z"/>
<path d="M60.2916 34.7105H59.2271C59.2237 34.7758 59.2354 34.8409 59.2612 34.9008C59.287 34.9607 59.3263 35.0137 59.3759 35.0555C59.4255 35.0973 59.4841 35.1269 59.547 35.1418C59.6098 35.1567 59.6753 35.1566 59.7381 35.1414C59.8851 35.1265 60.0251 35.0705 60.1426 34.9798C60.162 34.9685 60.184 34.9625 60.2064 34.9625C60.2289 34.9625 60.2509 34.9685 60.2703 34.9798C60.2864 35.1266 60.2864 35.2747 60.2703 35.4215C60.2703 35.4215 60.2703 35.4215 60.2171 35.4861C60.041 35.5842 59.8433 35.6357 59.6423 35.6357C59.4413 35.6357 59.2436 35.5842 59.0675 35.4861C58.9698 35.4244 58.8874 35.3408 58.8265 35.2418C58.7656 35.1429 58.7279 35.0311 58.7162 34.9152C58.6786 34.7462 58.6753 34.5712 58.7064 34.4009C58.7375 34.2305 58.8024 34.0683 58.8971 33.9241C58.9668 33.8347 59.0542 33.7611 59.1536 33.7078C59.253 33.6546 59.3623 33.6229 59.4745 33.6148C59.5866 33.6066 59.6993 33.6223 59.8051 33.6607C59.911 33.6991 60.0078 33.7595 60.0894 33.8379C60.1819 33.9437 60.2412 34.0749 60.2597 34.2149C60.2932 34.3778 60.3039 34.5446 60.2916 34.7105Z"/>
<path d="M42.3766 34.7104H41.3121C41.3105 34.7762 41.3237 34.8415 41.3508 34.9012C41.3779 34.961 41.4182 35.0137 41.4685 35.0553C41.5189 35.0969 41.578 35.1263 41.6413 35.1412C41.7046 35.1561 41.7704 35.1562 41.8337 35.1413C41.975 35.1235 42.11 35.0718 42.2276 34.9905C42.2476 34.9756 42.2719 34.9676 42.2968 34.9676C42.3216 34.9676 42.3459 34.9756 42.366 34.9905C42.366 35.1413 42.366 35.3029 42.366 35.4753C42.2065 35.5701 42.0279 35.6271 41.8435 35.6421C41.6591 35.657 41.4738 35.6294 41.3015 35.5615C41.1911 35.5215 41.0924 35.4543 41.0144 35.3658C40.9363 35.2774 40.8813 35.1706 40.8544 35.0552C40.7372 34.7466 40.7372 34.405 40.8544 34.0964C40.9002 33.9943 40.9656 33.9025 41.047 33.8264C41.1283 33.7503 41.2239 33.6914 41.328 33.6533C41.4322 33.6152 41.5428 33.5985 41.6534 33.6043C41.764 33.6101 41.8724 33.6382 41.9721 33.687C42.1014 33.7586 42.2027 33.8726 42.2595 34.0102C42.3464 34.2328 42.3863 34.4713 42.3766 34.7104Z"/>
<path d="M62.4312 30.4767H62.9103C62.9103 30.6814 62.9103 30.8968 62.9103 31.1231H63.4425V30.4767H63.9321C63.9645 31.1155 63.9645 31.7555 63.9321 32.3943H63.4531C63.4425 32.258 63.4425 32.1211 63.4531 31.9849V31.5863C63.2794 31.5755 63.1052 31.5755 62.9315 31.5863C62.9156 31.7187 62.9156 31.8525 62.9315 31.9849C62.9315 32.1142 62.9315 32.2434 62.9315 32.3835C62.7758 32.3996 62.6189 32.3996 62.4632 32.3835C62.4156 31.7491 62.405 31.1124 62.4312 30.4767Z"/>
<path d="M33.6267 34.6028C33.6034 34.3467 33.6714 34.0907 33.8183 33.881C33.8942 33.7675 34.0009 33.6787 34.1256 33.6252C34.2502 33.5717 34.3875 33.5558 34.5208 33.5793C35.0318 33.5793 35.2234 33.9887 35.2766 34.4304C35.3051 34.6693 35.2683 34.9115 35.1702 35.1306C35.118 35.2706 35.0248 35.391 34.903 35.4758C34.7812 35.5605 34.6367 35.6055 34.4889 35.6046C34.336 35.6193 34.1823 35.5858 34.0489 35.5086C33.9155 35.4315 33.8089 35.3145 33.7438 35.1737C33.6497 34.9994 33.6089 34.8006 33.6267 34.6028Z"/>
<path d="M31.4551 34.4734C31.4776 34.7353 31.422 34.998 31.2955 35.2275C31.2162 35.3505 31.1041 35.4481 30.9722 35.5091C30.8404 35.5702 30.6941 35.5921 30.5503 35.5723C30.4135 35.567 30.2811 35.5214 30.1695 35.441C30.058 35.3606 29.972 35.249 29.9223 35.1198C29.8458 34.9413 29.8064 34.7488 29.8064 34.5542C29.8064 34.3597 29.8458 34.1672 29.9223 33.9887C29.9924 33.8344 30.1105 33.7077 30.2585 33.6279C30.4066 33.5481 30.5764 33.5197 30.742 33.547C30.9349 33.5706 31.1126 33.6645 31.242 33.8113C31.3713 33.9581 31.4433 34.1475 31.4445 34.3442C31.4533 34.3866 31.4569 34.4301 31.4551 34.4734Z"/>
<path d="M28.5597 30.4659H29.0494C29.0494 30.6059 29.0494 30.7352 29.0494 30.8537V31.2415C29.1009 31.2474 29.1529 31.2358 29.1972 31.2085C29.2416 31.1812 29.2757 31.1398 29.2942 31.0907L29.4219 30.7999C29.4602 30.6892 29.5353 30.5954 29.6343 30.5345C29.7333 30.4736 29.8501 30.4493 29.9648 30.4659H30.0606C30.0767 30.6415 30.0767 30.8182 30.0606 30.9938C29.8477 30.9938 29.7626 31.1015 29.6881 31.2739C29.6574 31.3201 29.641 31.3744 29.641 31.4301C29.641 31.4857 29.6574 31.5401 29.6881 31.5863L30.0926 32.3081C30.0984 32.3217 30.1014 32.3363 30.1014 32.3512C30.1014 32.366 30.0984 32.3807 30.0926 32.3943H29.539L29.1878 31.7479C29.1878 31.6617 29.1026 31.6294 28.9855 31.6617V32.3943H28.4958L28.5597 30.4659Z"/>
<path d="M35.8621 32.3943V30.4767H36.3517C36.3517 30.7245 36.3517 30.983 36.3517 31.2416C36.4003 31.2458 36.449 31.2346 36.491 31.2095C36.5329 31.1844 36.5661 31.1467 36.5859 31.1015C36.6293 31.0174 36.6684 30.9311 36.703 30.843C36.852 30.5198 36.9904 30.4444 37.3843 30.4767C37.3843 30.6383 37.3843 30.7999 37.3843 30.9615C37.3451 30.9554 37.3051 30.9573 37.2666 30.9671C37.2281 30.9768 37.192 30.9943 37.1603 31.0183C37.1285 31.0424 37.1019 31.0727 37.0819 31.1073C37.0618 31.1419 37.0488 31.1803 37.0436 31.22C37.0239 31.2815 36.9952 31.3396 36.9585 31.3924L37.5013 32.3512H36.9159L36.5753 31.7156C36.5753 31.6294 36.4795 31.5863 36.373 31.6402V32.362L35.8621 32.3943Z"/>
<path d="M32.4025 34.0856C32.4025 34.2472 32.4025 34.3981 32.4025 34.5597C32.3971 34.781 32.3539 34.9996 32.2747 35.206C32.2266 35.3377 32.1296 35.4452 32.0044 35.5056C31.8791 35.566 31.7355 35.5744 31.6041 35.5292V35.066C31.8277 35.066 31.9128 34.8828 31.9341 34.5812C31.9506 34.2654 31.9506 33.949 31.9341 33.6332H33.2434V35.5508H32.775V34.0856H32.4025Z"/>
<path d="M44.8142 34.3658C44.8636 34.3834 44.9179 34.3808 44.9656 34.3587C45.0132 34.3366 45.0505 34.2967 45.0696 34.2472C45.0696 34.1934 45.0696 34.1287 45.1548 34.0641C45.1874 33.9855 45.2266 33.9098 45.2719 33.8379C45.3042 33.7703 45.3563 33.7145 45.421 33.6779C45.4858 33.6413 45.56 33.6257 45.6338 33.6332H45.8361V34.1287C45.6551 34.1287 45.5699 34.1934 45.5167 34.355C45.4928 34.4215 45.4644 34.4863 45.4316 34.5489L45.9532 35.5077C45.7832 35.5238 45.6122 35.5238 45.4422 35.5077C45.3783 35.5077 45.3571 35.4538 45.3358 35.4107C45.3145 35.3676 45.1229 35.0337 45.0271 34.8398C44.9313 34.6458 44.9313 34.7428 44.8355 34.7644V35.5508H44.3564V33.644C44.5157 33.6275 44.6762 33.6275 44.8355 33.644L44.8142 34.3658Z"/>
<path d="M24.0465 33.5147H23.4184C23.4184 34.1934 23.4184 34.8506 23.4184 35.5293C23.2449 35.5456 23.0703 35.5456 22.8968 35.5293V33.5255C22.6946 33.5255 22.4923 33.5255 22.2794 33.5255C22.2635 33.3571 22.2635 33.1876 22.2794 33.0192H24.0358L24.0465 33.5147Z"/>
<path d="M66.4124 32.3943V30.4767H66.902C66.902 30.6706 66.902 30.8753 66.902 31.0907C67.0473 31.1017 67.1932 31.1017 67.3384 31.0907C67.4283 31.0928 67.5165 31.1163 67.5958 31.1591C67.6751 31.2019 67.7434 31.263 67.7951 31.3374C67.8469 31.4118 67.8807 31.4974 67.8938 31.5874C67.9069 31.6774 67.899 31.7693 67.8707 31.8556C67.8654 31.9303 67.8453 32.0031 67.8117 32.0697C67.7781 32.1364 67.7317 32.1956 67.6751 32.2438C67.6186 32.292 67.5531 32.3282 67.4824 32.3504C67.4118 32.3725 67.3375 32.3801 67.2639 32.3727L66.4124 32.3943Z"/>
<path d="M27.6763 35.5508H27.1653C27.0908 35.5508 27.0695 35.5508 27.0376 35.4538C27.0056 35.3569 26.8779 35.1522 26.7821 34.9906C26.6863 35.1522 26.6011 35.2922 26.5266 35.4323C26.5125 35.471 26.486 35.5037 26.4512 35.5252C26.4164 35.5467 26.3755 35.5557 26.335 35.5508H25.8879L26.484 34.592L25.8986 33.644H26.4308C26.4947 33.644 26.5053 33.644 26.5266 33.7301L26.7821 34.1718C26.8752 34.0428 26.9571 33.9058 27.0269 33.7625C27.0427 33.7219 27.0708 33.6876 27.1071 33.6643C27.1435 33.6411 27.1863 33.6302 27.2292 33.6332H27.6763L27.0908 34.5704L27.6763 35.5508Z"/>
<path d="M43.2388 32.3943H42.7173C42.7173 32.2543 42.664 30.4767 42.7173 29.895C43.2064 29.8621 43.6971 29.8621 44.1862 29.895V30.369H43.2601L43.2388 32.3943Z"/>
<path d="M39.9602 34.8936C39.8066 34.9328 39.6499 34.958 39.4918 34.969C39.4252 34.9734 39.3585 34.9642 39.2954 34.9421C39.2324 34.9199 39.1744 34.8852 39.1248 34.8401C39.0752 34.7949 39.035 34.7402 39.0067 34.679C38.9783 34.6179 38.9623 34.5517 38.9596 34.4842C38.9596 34.4842 38.9596 34.3657 38.9596 34.3118V33.6439H39.3854C39.4014 33.7691 39.4014 33.8958 39.3854 34.021C39.3908 34.0567 39.3908 34.093 39.3854 34.1287C39.3854 34.4303 39.5451 34.5919 39.907 34.4842V33.6439H40.4499V35.5507C40.2904 35.5617 40.1303 35.5617 39.9708 35.5507L39.9602 34.8936Z"/>
<path d="M47.6883 31.0908C47.5819 31.0908 47.5393 31.0908 47.4967 31.0154C47.4444 30.966 47.382 30.9289 47.314 30.9066C47.2459 30.8842 47.1739 30.8773 47.1029 30.8861C47.0251 30.9058 46.9563 30.9517 46.9079 31.0164C46.8595 31.0811 46.8344 31.1605 46.8368 31.2416C46.7993 31.3937 46.7993 31.5528 46.8368 31.7049C46.8486 31.7775 46.8795 31.8455 46.9262 31.9018C46.973 31.9581 47.0339 32.0006 47.1025 32.0249C47.1712 32.0491 47.245 32.0542 47.3162 32.0396C47.3874 32.025 47.4535 31.9913 47.5074 31.9419L47.6138 31.8449C47.6306 31.8318 47.6512 31.8247 47.6724 31.8247C47.6935 31.8247 47.7141 31.8318 47.7309 31.8449C47.7309 31.9957 47.7309 32.1573 47.7309 32.3082C47.7309 32.459 47.7309 32.3728 47.667 32.3943C47.5349 32.4759 47.3844 32.5218 47.2297 32.5276C47.0751 32.5335 46.9216 32.4991 46.7839 32.4277C46.6461 32.3564 46.5287 32.2505 46.4429 32.1202C46.3572 31.9899 46.3058 31.8395 46.2939 31.6833C46.2619 31.4944 46.2619 31.3013 46.2939 31.1124C46.3322 30.9463 46.4222 30.797 46.5505 30.6864C46.6789 30.5759 46.8389 30.51 47.0071 30.4983C47.2086 30.4681 47.4144 30.5059 47.5925 30.606C47.5925 30.606 47.6883 30.606 47.6883 30.7245V31.0908Z"/>
<path d="M35.5214 31.7802C35.5318 31.9309 35.5318 32.0821 35.5214 32.2327C35.5212 32.2506 35.5162 32.2682 35.5068 32.2834C35.4974 32.2986 35.484 32.3109 35.4681 32.3189C35.275 32.4269 35.0517 32.4664 34.8338 32.4313C34.6158 32.3962 34.4158 32.2883 34.2653 32.125C34.1469 31.9466 34.0839 31.7365 34.0843 31.5217C34.0673 31.3122 34.1001 31.1016 34.1801 30.9076C34.2678 30.7324 34.4106 30.5918 34.586 30.5079C34.7614 30.424 34.9594 30.4017 35.1488 30.4444C35.2814 30.4577 35.4073 30.5102 35.5107 30.5952V31.0908C35.4469 31.0908 35.4043 31.0908 35.3617 31.0908C35.2927 31.0221 35.2089 30.9704 35.1169 30.9399C35.0708 30.9232 35.0219 30.916 34.973 30.919C34.9241 30.9219 34.8764 30.9349 34.8326 30.957C34.7888 30.9792 34.7499 31.0101 34.7183 31.0479C34.6866 31.0857 34.6629 31.1296 34.6485 31.1769C34.5953 31.3488 34.5953 31.533 34.6485 31.7048C34.6627 31.7746 34.6943 31.8395 34.7401 31.8936C34.786 31.9476 34.8447 31.9889 34.9107 32.0137C34.9767 32.0385 35.0478 32.0459 35.1174 32.0352C35.187 32.0245 35.2527 31.9961 35.3085 31.9526C35.3559 31.9189 35.3989 31.879 35.4362 31.8341C35.4429 31.8171 35.4548 31.8028 35.4701 31.7931C35.4854 31.7834 35.5034 31.7789 35.5214 31.7802Z"/>
<path d="M28.1978 30.5737V31.0908C28.1339 31.0908 28.102 31.0908 28.0701 31.0908C28.001 31.0302 27.9217 30.9827 27.8359 30.9508C27.7912 30.9316 27.7432 30.9216 27.6947 30.9216C27.6462 30.9215 27.5982 30.9313 27.5535 30.9504C27.5089 30.9695 27.4684 30.9975 27.4346 31.0327C27.4008 31.068 27.3744 31.1097 27.3569 31.1555C27.2769 31.3596 27.2769 31.5869 27.3569 31.7911C27.3829 31.851 27.4224 31.904 27.4723 31.9458C27.5222 31.9875 27.581 32.0169 27.6441 32.0316C27.7072 32.0462 27.7728 32.0457 27.8357 32.0302C27.8985 32.0146 27.9569 31.9844 28.0062 31.9419L28.1126 31.8341C28.1126 31.8341 28.1659 31.8341 28.2191 31.8341V32.2866C28.2193 32.3115 28.2123 32.336 28.1991 32.357C28.1859 32.378 28.167 32.3947 28.1446 32.4051C28.0225 32.476 27.8859 32.5171 27.7454 32.5252C27.6049 32.5333 27.4645 32.5081 27.3353 32.4516C27.2061 32.3951 27.0917 32.3089 27.0012 32.1999C26.9107 32.0908 26.8466 31.9619 26.814 31.8234C26.7554 31.5828 26.7554 31.3314 26.814 31.0908C26.876 30.8807 27.0158 30.7028 27.2042 30.5945C27.3926 30.4861 27.6151 30.4555 27.8252 30.5091H28.0275L28.1978 30.5737Z"/>
<path d="M56.8534 30.5952V31.0908C56.8376 31.1059 56.8166 31.1144 56.7949 31.1144C56.7731 31.1144 56.7521 31.1059 56.7363 31.0908C56.6728 31.018 56.5923 30.9624 56.5021 30.9292C56.4567 30.9098 56.408 30.8997 56.3587 30.8995C56.3094 30.8994 56.2606 30.9091 56.2151 30.9281C56.1695 30.9471 56.1282 30.9751 56.0934 31.0105C56.0586 31.0458 56.0311 31.0877 56.0125 31.1339C55.9328 31.3418 55.9328 31.5723 56.0125 31.7803C56.0412 31.8396 56.0834 31.8913 56.1356 31.931C56.1877 31.9708 56.2484 31.9975 56.3127 32.0091C56.377 32.0206 56.4431 32.0166 56.5056 31.9975C56.5681 31.9783 56.6253 31.9445 56.6724 31.8988C56.7257 31.8988 56.747 31.8018 56.8215 31.791C56.8215 31.9634 56.8215 32.1358 56.8215 32.2974C56.7019 32.3871 56.5621 32.4453 56.4147 32.4665C56.2673 32.4878 56.1171 32.4714 55.9775 32.419C55.8379 32.3666 55.7135 32.2797 55.6155 32.1663C55.5175 32.0529 55.4491 31.9165 55.4164 31.7695C55.3578 31.5362 55.3578 31.2918 55.4164 31.0585C55.4458 30.9473 55.4969 30.8432 55.5667 30.7524C55.6365 30.6616 55.7236 30.5858 55.8228 30.5296C55.9221 30.4733 56.0314 30.4378 56.1444 30.425C56.2574 30.4122 56.3718 30.4225 56.4808 30.4552C56.6169 30.459 56.7479 30.5083 56.8534 30.5952Z"/>
<path d="M44.0053 34.2472C43.9201 34.2472 43.8882 34.2472 43.835 34.1826C43.7572 34.097 43.6512 34.0433 43.5369 34.0317C43.3347 34.0317 43.2282 34.0856 43.1643 34.2688C43.0895 34.4627 43.0895 34.6781 43.1643 34.872C43.1809 34.9275 43.2096 34.9785 43.2483 35.0213C43.2869 35.0641 43.3345 35.0975 43.3876 35.1192C43.4407 35.1409 43.4979 35.1503 43.5551 35.1467C43.6122 35.1431 43.6679 35.1265 43.7179 35.0983C43.7943 35.0668 43.8606 35.0146 43.9095 34.9474C43.9095 34.9474 43.9627 34.9474 44.0159 34.9474V35.4753C43.8526 35.5739 43.6637 35.6205 43.4738 35.609C43.284 35.5974 43.102 35.5284 42.9514 35.4107C42.8491 35.3213 42.772 35.2061 42.7279 35.0767C42.6372 34.7857 42.6372 34.4736 42.7279 34.1826C42.7818 33.9997 42.898 33.842 43.0558 33.7375C43.2136 33.633 43.4029 33.5884 43.5901 33.6116C43.7314 33.6154 43.8698 33.6523 43.9946 33.7193C44.0479 33.7193 44.0904 33.7732 44.0798 33.8378L44.0053 34.2472Z"/>
<path d="M63.8682 34.258C63.7724 34.258 63.7511 34.2041 63.7085 34.1718C63.628 34.0981 63.5283 34.0495 63.4211 34.0317C63.3341 34.0185 63.2453 34.0389 63.1724 34.0887C63.0994 34.1386 63.0476 34.2144 63.0273 34.3011C62.9741 34.4729 62.9741 34.6571 63.0273 34.8289C63.0453 34.8989 63.0809 34.963 63.1306 35.015C63.1802 35.067 63.2423 35.1052 63.3109 35.1258C63.3794 35.1464 63.452 35.1487 63.5217 35.1325C63.5913 35.1164 63.6557 35.0823 63.7085 35.0336C63.7467 34.9826 63.7936 34.9388 63.8469 34.9044C63.8679 35.0038 63.8679 35.1066 63.8469 35.206C63.8469 35.4753 63.8469 35.5076 63.5489 35.5723C63.3266 35.619 63.0953 35.5926 62.8889 35.4969C62.7644 35.4344 62.6585 35.3397 62.5818 35.2224C62.5052 35.1051 62.4605 34.9693 62.4525 34.8289C62.4041 34.5872 62.4263 34.3364 62.5163 34.1071C62.5774 33.9363 62.6937 33.7912 62.8462 33.6955C62.9988 33.5997 63.1789 33.5587 63.3573 33.5793H63.5595C63.815 33.6439 63.8469 33.687 63.8469 33.9563C63.8662 34.0556 63.8733 34.1569 63.8682 34.258Z"/>
<path d="M58.4501 30.9076H57.971V32.3835C57.8011 32.3998 57.63 32.3998 57.4601 32.3835V30.9076H56.9811V30.4767H58.4394C58.4646 30.6189 58.4682 30.7643 58.4501 30.9076Z"/>
<path d="M70.1486 34.0534V35.5508H69.6696C69.6696 35.303 69.6696 35.0553 69.6696 34.8075V34.0749H69.1906C69.1749 33.9353 69.1749 33.7944 69.1906 33.6548H70.617C70.6338 33.7907 70.6338 33.9282 70.617 34.0642L70.1486 34.0534Z"/>
<path d="M66.8807 35.5507H66.4017V34.0641H65.9972C65.9812 33.9245 65.9812 33.7835 65.9972 33.6439H67.4236C67.4236 33.7624 67.4236 33.9025 67.4236 34.0533H66.9446L66.8807 35.5507Z"/>
<path d="M35.6173 33.6332H36.8201V34.0749H36.0856V35.5508H35.6386C35.5963 34.9125 35.5892 34.2723 35.6173 33.6332Z"/>
<path d="M68.1262 30.4767H68.5946C68.6268 31.1155 68.6268 31.7555 68.5946 32.3943H68.1262V30.4767Z"/>
<path d="M39.8858 29.6472H40.269C40.269 29.6472 40.269 29.7549 40.269 29.8196C40.2825 29.8632 40.3094 29.9013 40.3458 29.9284C40.3821 29.9555 40.4261 29.9702 40.4712 29.9704C40.5167 29.9681 40.5599 29.9495 40.5931 29.9179C40.6262 29.8864 40.6472 29.8438 40.6522 29.798C40.6442 29.7481 40.6442 29.6972 40.6522 29.6472C40.7586 29.6472 40.8757 29.6472 41.0141 29.6472C41.0365 29.7429 41.0302 29.8432 40.9961 29.9353C40.962 30.0274 40.9015 30.1071 40.8225 30.1643C40.7256 30.2371 40.6109 30.2816 40.4908 30.293C40.3707 30.3044 40.2498 30.2822 40.1412 30.229C40.0493 30.1657 39.9766 30.0778 39.9315 29.975C39.8864 29.8722 39.8705 29.7586 39.8858 29.6472Z"/>
<path d="M70.0209 29.6472H70.3828C70.3932 29.7227 70.388 29.7997 70.3675 29.8731C70.3469 29.9465 70.3115 30.0147 70.2634 30.0735C70.2153 30.1323 70.1557 30.1803 70.0883 30.2145C70.0209 30.2486 69.9472 30.2682 69.8719 30.272C69.7849 30.2911 69.6948 30.2892 69.6087 30.2663C69.5227 30.2434 69.4432 30.2003 69.3768 30.1404C69.3104 30.0806 69.2589 30.0056 69.2265 29.9218C69.1942 29.8379 69.1819 29.7475 69.1906 29.6579C69.3143 29.6417 69.4395 29.6417 69.5632 29.6579C69.5632 29.7872 69.5632 29.9811 69.7973 29.9811C70.0315 29.9811 69.9783 29.7872 70.0209 29.6472Z"/>
<path d="M37.4587 7.54114C37.5119 7.54114 37.5758 7.54114 37.629 7.54114C37.6823 7.54114 37.7674 7.54114 37.8206 7.54114C37.6703 7.57814 37.5133 7.57814 37.3629 7.54114C37.3629 7.54114 37.4268 7.54114 37.4587 7.54114Z"/>
<path d="M49.1998 5.86052C49.1998 5.79588 49.1253 5.86052 49.0828 5.86052C49.0402 5.86052 49.2318 5.86052 49.3169 5.86052C49.2984 5.86852 49.2785 5.87264 49.2584 5.87264C49.2383 5.87264 49.2184 5.86852 49.1998 5.86052Z"/>
<path d="M50.4559 30.9292H50.7433V31.9419C50.5767 31.9529 50.4096 31.9529 50.243 31.9419C50.3498 31.613 50.4211 31.2735 50.4559 30.9292Z"/>
<path d="M54.1071 30.9939L54.2241 30.94C54.2669 30.9137 54.3157 30.8992 54.3657 30.8978C54.4157 30.8965 54.4652 30.9083 54.5093 30.9323C54.5534 30.9562 54.5905 30.9914 54.617 31.0343C54.6436 31.0772 54.6586 31.1264 54.6606 31.177C54.6872 31.323 54.6872 31.4727 54.6606 31.6187C54.6073 31.9096 54.469 32.0173 54.1709 31.9634H54.1071V30.9939Z"/>
<path d="M61.1326 35.0983V34.2041C61.1326 34.2041 61.1326 34.1503 61.1326 34.1287C61.1682 34.0974 61.2104 34.0748 61.256 34.0625C61.3016 34.0503 61.3493 34.0488 61.3956 34.0582C61.4418 34.0676 61.4854 34.0875 61.5228 34.1166C61.5602 34.1456 61.5906 34.1829 61.6116 34.2257C61.6913 34.4484 61.6913 34.6924 61.6116 34.9151C61.5924 34.9785 61.5524 35.0334 61.4982 35.0706C61.444 35.1078 61.3788 35.1252 61.3135 35.1198C61.2524 35.1244 61.191 35.1171 61.1326 35.0983Z"/>
<path d="M59.1846 31.9957V31.5971C59.3043 31.5762 59.4267 31.5762 59.5465 31.5971C59.5707 31.5978 59.5944 31.6041 59.6158 31.6155C59.6372 31.6269 59.6558 31.643 59.6702 31.6628C59.6845 31.6825 59.6943 31.7052 59.6987 31.7293C59.7031 31.7534 59.702 31.7782 59.6955 31.8018C59.6955 31.9203 59.6955 31.9957 59.5358 31.9957H59.1846Z"/>
<path d="M59.1846 31.2415V30.886C59.2726 30.8699 59.3627 30.8699 59.4507 30.886C59.5678 30.886 59.621 30.9399 59.6317 31.0368C59.6423 31.1338 59.6317 31.2092 59.4826 31.2415C59.3836 31.2527 59.2836 31.2527 59.1846 31.2415Z"/>
<path d="M32.8176 31.9957V31.5756H33.1583C33.286 31.5756 33.3392 31.651 33.3286 31.791C33.3179 31.9311 33.3286 31.9742 33.1583 31.9742L32.8176 31.9957Z"/>
<path d="M32.8176 31.2415V30.886C32.9056 30.8699 32.9958 30.8699 33.0837 30.886C33.2008 30.886 33.2541 30.9399 33.2647 31.0368C33.2753 31.1338 33.2647 31.2092 33.105 31.2415H32.8176Z"/>
<path d="M57.4814 34.7321C57.6015 34.7158 57.7232 34.7158 57.8433 34.7321C57.8653 34.7333 57.8868 34.7392 57.9064 34.7493C57.926 34.7594 57.9434 34.7735 57.9574 34.7907C57.9714 34.8079 57.9817 34.8278 57.9877 34.8492C57.9938 34.8707 57.9953 34.8931 57.9924 34.9152C57.9966 34.9603 57.985 35.0055 57.9597 35.0429C57.9344 35.0803 57.897 35.1075 57.854 35.1199C57.7303 35.1364 57.6051 35.1364 57.4814 35.1199C57.4719 34.9908 57.4719 34.8612 57.4814 34.7321Z"/>
<path d="M57.4814 34.3765V34.0317H57.7688C57.8753 34.0317 57.9072 34.0856 57.9179 34.1826C57.9285 34.2795 57.9179 34.3657 57.7901 34.3765C57.6873 34.3819 57.5843 34.3819 57.4814 34.3765Z"/>
<path d="M52.6488 31.5001C52.6645 31.6145 52.6645 31.7305 52.6488 31.8449C52.6488 31.8449 52.6488 31.8987 52.6488 31.9203C52.5729 31.9884 52.4733 32.0233 52.372 32.0172C52.3263 32.0179 52.2818 32.0019 52.2467 31.9723C52.2115 31.9427 52.188 31.9013 52.1804 31.8556C52.1804 31.7264 52.1804 31.6294 52.2975 31.5863C52.4118 31.547 52.5294 31.5182 52.6488 31.5001Z"/>
<path d="M61.569 31.1662H60.9835C60.9835 30.9292 61.09 30.8323 61.2922 30.8323C61.4945 30.8323 61.5583 30.9292 61.569 31.1662Z"/>
<path d="M25.3877 31.4355C25.3863 31.2999 25.4079 31.1651 25.4515 31.0369C25.4694 30.9858 25.5026 30.9417 25.5465 30.9108C25.5904 30.8798 25.6429 30.8637 25.6964 30.8645C25.7507 30.8588 25.8053 30.8715 25.8516 30.9008C25.8979 30.9301 25.9331 30.9742 25.9518 31.0261C26.0554 31.2852 26.0554 31.5749 25.9518 31.8341C25.9335 31.8869 25.8986 31.9323 25.8525 31.9634C25.8065 31.9945 25.7517 32.0096 25.6964 32.0064C25.6411 32.0096 25.5863 31.9945 25.5402 31.9634C25.4941 31.9323 25.4593 31.8869 25.4409 31.8341C25.4025 31.7049 25.3846 31.5703 25.3877 31.4355Z"/>
<path d="M45.4422 31.8126C45.4274 31.8714 45.3926 31.923 45.344 31.9585C45.2953 31.9939 45.2359 32.0109 45.1761 32.0065C45.1167 32.0089 45.0583 31.9911 45.01 31.956C44.9618 31.9208 44.9266 31.8704 44.91 31.8126C44.8248 31.5686 44.8248 31.3025 44.91 31.0585C44.9248 30.9997 44.9596 30.9481 45.0083 30.9126C45.0569 30.8772 45.1163 30.8602 45.1761 30.8646C45.2347 30.8656 45.2916 30.8847 45.3392 30.9194C45.3867 30.954 45.4227 31.0026 45.4422 31.0585C45.4472 31.1086 45.4472 31.1592 45.4422 31.2093"/>
<path d="M31.4445 31.4463C31.471 31.5633 31.471 31.6848 31.4445 31.8018C31.4268 31.8597 31.3916 31.9106 31.3439 31.9473C31.2962 31.984 31.2383 32.0047 31.1784 32.0065C31.1094 32.0092 31.0414 31.9884 30.9854 31.9473C30.9295 31.9063 30.8887 31.8475 30.8697 31.7802C30.811 31.5579 30.811 31.3239 30.8697 31.1016C30.8815 31.0376 30.9141 30.9795 30.9624 30.9366C31.0106 30.8936 31.0717 30.8683 31.1358 30.8645C31.2037 30.8634 31.2697 30.8865 31.3223 30.9299C31.3749 30.9733 31.4107 31.0341 31.4232 31.1016C31.4281 31.1445 31.4281 31.1879 31.4232 31.2308C31.4357 31.302 31.4428 31.374 31.4445 31.4463Z"/>
<path d="M24.717 34.3334C24.717 34.0749 24.8874 33.9456 25.0683 33.9672C25.2493 33.9887 25.3025 34.118 25.2919 34.3334H24.717Z"/>
<path d="M67.9878 34.3334C67.9878 34.0964 68.1368 33.9564 68.3178 33.9671C68.4987 33.9779 68.5733 34.0964 68.5733 34.3334H67.9878Z"/>
<path d="M59.2272 34.3334C59.2272 34.1072 59.323 33.9779 59.5252 33.9671C59.7275 33.9563 59.7807 34.0748 59.802 34.3334H59.2272Z"/>
<path d="M41.2908 34.3334C41.2908 34.0964 41.4291 33.9564 41.6208 33.9671C41.8124 33.9779 41.8762 34.1072 41.8656 34.3334H41.2908Z"/>
<path d="M34.1375 34.5813C34.1174 34.4672 34.1174 34.3505 34.1375 34.2365C34.1493 34.1726 34.182 34.1145 34.2302 34.0715C34.2784 34.0286 34.3395 34.0032 34.4037 33.9995C34.4653 34.0058 34.5237 34.0308 34.5712 34.0711C34.6186 34.1115 34.653 34.1654 34.6698 34.2257C34.7391 34.4576 34.7391 34.7049 34.6698 34.9368C34.6533 35.0013 34.6162 35.0585 34.5642 35.0995C34.5122 35.1404 34.4482 35.1627 34.3824 35.163C34.3179 35.1553 34.2575 35.1272 34.2097 35.0827C34.1619 35.0382 34.1292 34.9796 34.1162 34.9152C34.1069 34.8034 34.1141 34.6909 34.1375 34.5813Z"/>
<path d="M30.9442 34.592C30.9648 34.7132 30.9648 34.8371 30.9442 34.9583C30.8909 35.0768 30.8271 35.163 30.6887 35.163C30.6259 35.1665 30.564 35.1465 30.5149 35.1067C30.4658 35.067 30.4329 35.0103 30.4226 34.9475C30.3484 34.7128 30.3484 34.4605 30.4226 34.2258C30.4226 34.0749 30.5609 33.9995 30.678 34.0103C30.7398 34.011 30.7995 34.0326 30.8478 34.0717C30.896 34.1107 30.9299 34.1649 30.9442 34.2258C30.9648 34.347 30.9648 34.4708 30.9442 34.592Z"/>
<path d="M66.9233 31.9957V31.5217C67.0144 31.5001 67.1091 31.5001 67.2001 31.5217C67.2293 31.5255 67.2574 31.5354 67.2826 31.5507C67.3078 31.5661 67.3296 31.5865 67.3466 31.6108C67.3636 31.6351 67.3754 31.6627 67.3814 31.6919C67.3873 31.721 67.3872 31.7511 67.3811 31.7802C67.3811 31.9203 67.3066 31.9849 67.1575 31.9957H66.9233Z"/>
</symbol><symbol id="mail" viewBox="0 0 20 16">
<path fill-rule="evenodd" clip-rule="evenodd" d="M10 15C3.25 15 1 13.25 1 8C1 2.75 3.25 1 10 1C16.75 1 19 2.75 19 8C19 13.25 16.75 15 10 15Z" stroke-width="2" stroke-linecap="round" stroke-linejoin="round"/>
<path d="M2.76904 3.38C4.82181 5.67293 7.27137 7.57674 10 9C12.7284 7.57668 15.1776 5.67286 17.23 3.38" stroke-width="2" stroke-linecap="round" stroke-linejoin="round"/>
</symbol><symbol id="microscope" viewBox="0 0 44 44">
<path d="M12 20C12.552 20 13 19.552 13 19V7C13 6.449 13.449 6 14 6H15H19H20C20.551 6 21 6.449 21 7V8C21 8.552 21.448 9 22 9C22.552 9 23 8.552 23 8V7C23 5.346 21.654 4 20 4V2C20.552 2 21 1.552 21 1C21 0.448 20.552 0 20 0H19H15H14C13.448 0 13 0.448 13 1C13 1.552 13.448 2 14 2V4C12.346 4 11 5.346 11 7V19C11 19.552 11.448 20 12 20ZM16 2H18V4H16V2Z"/>
<path d="M25 12C24.911 12 24.768 12 24.618 12C23.915 11.385 23.006 11 22 11C19.794 11 18 12.794 18 15C18 16.858 19.28 18.411 21 18.858V22.764L19.382 26H14.618L13.618 24H18C18.552 24 19 23.552 19 23C19 22.448 18.552 22 18 22H12C11.653 22 11.332 22.18 11.149 22.474C10.967 22.769 10.95 23.137 11.105 23.447L13.105 27.447C13.275 27.786 13.621 28 14 28H20C20.379 28 20.725 27.786 20.895 27.447L22.895 23.447C22.964 23.309 23 23.155 23 23V18.858C23.609 18.7 24.157 18.402 24.618 18H25C29.962 18 34 22.038 34 27V33C34 34.494 32.902 35.736 31.472 35.963L28.8 32.4C28.611 32.148 28.315 32 28 32H7C6.448 32 6 32.448 6 33C6 33.552 6.448 34 7 34H27.5L30.2 37.6C30.388 37.852 30.685 38 31 38C33.757 38 36 35.757 36 33V27C36 21.22 31.516 16.477 25.845 16.043C25.936 15.708 26 15.363 26 15C26 14.669 25.948 14.352 25.872 14.044C32.633 14.496 38 20.126 38 27V33C38 36.86 34.859 40 31 40C30.448 40 30 40.448 30 41V42H6V39C6 38.449 6.449 38 7 38H24C24.552 38 25 37.552 25 37C25 36.448 24.552 36 24 36H7C5.346 36 4 37.346 4 39V43C4 43.552 4.448 44 5 44H31C31.553 44 32 43.552 32 43V41.945C36.494 41.446 40 37.625 40 33V27C40 18.729 33.271 12 25 12ZM20 15C20 13.897 20.897 13 22 13C23.103 13 24 13.897 24 15C24 16.103 23.103 17 22 17C20.897 17 20 16.103 20 15Z"/>
</symbol><symbol id="phone" viewBox="0 0 19 19">
<path d="M17.0001 5.99994C17.0706 4.91899 16.6719 3.86008 15.9059 3.09411C15.1399 2.32814 14.081 1.92941 13.0001 1.99994" stroke-width="2" stroke-linecap="round" stroke-linejoin="round"/>
<path fill-rule="evenodd" clip-rule="evenodd" d="M5.00009 1.99991C5.81277 1.93946 6.61146 2.23606 7.1877 2.8123C7.76394 3.38854 8.06054 4.18723 8.00009 4.99991C8.00009 6.45291 7.00009 6.99991 7.00009 7.99991C7.00009 8.99991 10.0001 11.9999 11.0001 11.9999C12.0001 11.9999 12.5461 10.9999 14.0001 10.9999C14.8128 10.9395 15.6115 11.2361 16.1877 11.8123C16.7639 12.3885 17.0605 13.1872 17.0001 13.9999C16.8549 16.146 15.1462 17.8547 13.0001 17.9999C11.0001 17.9999 9.00009 17.9999 5.00009 13.9999C1.00009 9.99991 1.00009 7.99991 1.00009 5.99991C1.14526 3.85378 2.85395 2.14508 5.00009 1.99991Z" stroke-width="2" stroke-linecap="round" stroke-linejoin="round"/>
<path d="M14 7C14 5.89543 13.1046 5 12 5" stroke-width="2" stroke-linecap="round" stroke-linejoin="round"/>
</symbol><symbol id="reactor" viewBox="0 0 44 44">
<path d="M12 8C13.7 8 15 6.7 15 5C15 4.4 15.4 4 16 4C17.7 4 19 2.7 19 1C19 0.4 18.6 0 18 0C17.4 0 17 0.4 17 1C17 1.6 16.6 2 16 2C14.3 2 13 3.3 13 5C13 5.6 12.6 6 12 6C11.4 6 11 6.4 11 7C11 7.6 11.4 8 12 8ZM17 7C17 7.6 17.4 8 18 8C18.6 8 19 7.6 19 7C19 6.4 19.4 6 20 6C21.7 6 23 4.7 23 3C23 2.4 23.4 2 24 2C24.6 2 25 1.6 25 1C25 0.4 24.6 0 24 0C22.3 0 21 1.3 21 3C21 3.6 20.6 4 20 4C18.3 4 17 5.3 17 7ZM29 14C30.7 14 32 12.7 32 11C32 10.4 32.4 10 33 10C33.6 10 34 9.6 34 9C34 8.4 33.6 8 33 8C31.3 8 30 9.3 30 11C30 11.6 29.6 12 29 12C28.4 12 28 12.4 28 13C28 13.6 28.4 14 29 14ZM33 13C33 13.6 33.4 14 34 14C34.6 14 35 13.6 35 13C35 12.4 35.4 12 36 12C37.7 12 39 10.7 39 9C39 8.4 38.6 8 38 8C37.4 8 37 8.4 37 9C37 9.6 36.6 10 36 10C34.3 10 33 11.3 33 13Z"/>
<path d="M43.9 42.6L42 37.8C39.3 31.1 38 24.1 38 17C38 16.4 37.6 16 37 16H27C26.4 16 26 16.4 26 17V21C26 21.6 26.4 22 27 22H33C33.6 22 34 21.6 34 21C34 20.4 33.6 20 33 20H28V18H36C36.1 25.1 37.5 32 40.1 38.6L41.5 42H29.7L28.2 37.8C25.4 29.9 24 21.6 24 13.2V11C24 10.4 23.6 10 23 10H6.99998C6.39998 10 5.99998 10.4 5.99998 11V13.2C5.99998 21.6 4.59998 29.9 1.79998 37.8L0.0999838 42.7C-0.100016 43 -1.62125e-05 43.3 0.199984 43.6C0.399984 43.8 0.699984 44 0.999984 44H25C25.6 44 26 43.6 26 43C26 42.4 25.6 42 25 42H2.39998L3.69998 38.4C6.49998 30.3 7.99998 21.8 7.99998 13.2V12H22V13.2C22 14.2 22 15.1 22.1 16H11C10.4 16 9.99998 16.4 9.99998 17C9.99998 17.6 10.4 18 11 18H22.2C22.6 25 24 31.8 26.4 38.4L28.1 43.3C28.2 43.7 28.6 44 29 44H43C43.3 44 43.6 43.8 43.8 43.6C44 43.4 44.1 42.9 43.9 42.6Z"/>
</symbol><symbol id="ruler" viewBox="0 0 44 44">
<path d="M15 19C21.168 19 26 16.364 26 13C26 9.636 21.168 7 15 7C8.832 7 4 9.636 4 13C4 16.364 8.832 19 15 19ZM15 9C20.304 9 24 11.108 24 13C24 14.892 20.304 17 15 17C9.696 17 6 14.892 6 13C6 11.108 9.696 9 15 9Z"/>
<path d="M15 16C18.484 16 22 15.072 22 13C22 10.928 18.484 10 15 10C11.516 10 8 10.928 8 13C8 15.072 11.516 16 15 16ZM15 12C17.764 12 19.439 12.63 19.909 13C19.439 13.37 17.763 14 15 14C12.237 14 10.561 13.37 10.091 13C10.561 12.63 12.236 12 15 12Z"/>
<path d="M41 20H30V13C30 7.953 23.411 4 15 4C6.589 4 0 7.953 0 13V31C0 36.047 6.589 40 15 40H41C42.654 40 44 38.654 44 37V23C44 21.346 42.654 20 41 20ZM24.526 20C25.924 19.319 27.097 18.484 28 17.538V20H24.526ZM42 37C42 37.552 41.551 38 41 38H40V34C40 33.447 39.552 33 39 33C38.448 33 38 33.447 38 34V38H36V36C36 35.447 35.552 35 35 35C34.448 35 34 35.447 34 36V38H32V34C32 33.447 31.552 33 31 33C30.448 33 30 33.447 30 34V38H28V36C28 35.447 27.552 35 27 35C26.448 35 26 35.447 26 36V38H24V34C24 33.447 23.552 33 23 33C22.448 33 22 33.447 22 34V38H20V36C20 35.447 19.552 35 19 35C18.448 35 18 35.447 18 36V38H16V34C16 33.447 15.552 33 15 33C14.448 33 14 33.447 14 34V37.972C13.318 37.942 12.651 37.882 12 37.796V35C12 34.447 11.552 34 11 34C10.448 34 10 34.447 10 35V37.441C9.3 37.279 8.634 37.079 8 36.855V32C8 31.447 7.552 31 7 31C6.448 31 6 31.447 6 32V35.993C5.237 35.594 4.568 35.145 4 34.659V32C4 31.447 3.552 31 3 31C2.563 31 2.202 31.284 2.066 31.674C2.024 31.452 2 31.227 2 31V13C2 9.206 7.953 6 15 6C22.047 6 28 9.206 28 13C28 16.794 22.047 20 15 20C11.381 20 8.009 19.196 5.505 17.735C5.026 17.459 4.415 17.619 4.137 18.095C3.859 18.573 4.02 19.185 4.497 19.463C7.303 21.1 11.033 22 15 22H41C41.551 22 42 22.448 42 23V37Z"/>
</symbol><symbol id="student" viewBox="0 0 34 44">
<circle cx="14" cy="15" r="1"/>
<circle cx="20" cy="15" r="1"/>
<path fill-rule="evenodd" clip-rule="evenodd" d="M3.8 4L7 4.5V11C7 13 7.7 17.7 7.8 17.8C8 19.5 8.7 21.1 9.7 22.4L9.9 22.7C11.6 24.8 14.2 26 17 26C19.8 26 22.3 24.8 24.1 22.7L24.3 22.4C25.4 21.1 26 19.5 26.2 17.9C26.2 17.9 26.5 16 26.7 14.1C26.8 13.6 26.4 13.1 25.8 13C25.2 12.9 24.8 13.3 24.7 13.9C24.5 15.7 24.2 17.6 24.2 17.6C24.1 18.9 23.5 20.1 22.7 21.1L22.5 21.4C21.2 23.1 19.2 24 17 24C14.8 24 12.8 23.1 11.5 21.4L11.3 21.1C10.5 20.1 9.9 18.9 9.8 17.5C9.8 17.5 9 12.8 9 10.9V4.8L16.8 6H17H17.2L25 4.8V9.2C20.8 10.1 15.7 10.2 11.1 9.60001C10.6 9.5 10 9.89999 10 10.4C9.9 10.9 10.3 11.5 10.8 11.5C12.8 11.8 14.8 11.9 16.9 11.9C20.1 11.9 23.4 11.6 26.2 10.9C26.6 10.8 27 10.4 27 9.89999V4.5L29 4.2V9.3C28.4 9.60001 28 10.3 28 11C28 12.1 28.9 13 30 13C31.1 13 32 12.1 32 11C32 10.3 31.6 9.60001 31 9.3V3C31 2.5 30.6 2.10001 30.2 2L17.2 0H16.9L3.9 2C3.4 2.10001 3 2.5 3 3C3 3.5 3.4 3.89999 3.8 4ZM17 2L23.4 3L17 4L10.6 3L17 2ZM23.2 28.0002L30 29.4002C32.3 29.8002 34 31.9002 34 34.3002V41.0002C34 42.7002 32.7 44.0002 31 44.0002H3C1.3 44.0002 0 42.7002 0 41.0002V34.3002C0 31.9002 1.7 29.9002 4 29.4002L10.8 28.0002C11.4 27.9002 11.9 28.3002 12 28.8002C12.1 29.4002 11.7 29.9002 11.2 30.0002L4.4 31.4002C3 31.6002 2 32.9002 2 34.3002V41.0002C2 41.6002 2.4 42.0002 3 42.0002H30.9C31.5 42.0002 31.9 41.6002 31.9 41.0002V34.3002C31.9 32.9002 30.9 31.7002 29.5 31.4002L23.2 30.1002L19.5 33.2002C19 33.6002 18.5 33.9002 17.9 34.0002V39.0002C17.9 39.6002 17.5 40.0002 16.9 40.0002C16.3 40.0002 15.9 39.6002 15.9 39.0002V34.0002C15.4 33.8002 14.9 33.6002 14.4 33.2002L12.4 31.8002C11.9 31.5002 11.8 30.9002 12.1 30.4002C12.4 29.9002 13 29.8002 13.5 30.1002L15.6 31.5002C15.6 31.6002 15.7 31.6002 15.7 31.6002C16.5 32.2002 17.6 32.2002 18.3 31.6002L22.4 28.2002C22.6 28.0002 22.9 27.9002 23.2 28.0002Z"/>
<path d="M16 21H18C18.6 21 19 20.6 19 20C19 19.4 18.6 19 18 19H16C15.4 19 15 19.4 15 20C15 20.6 15.4 21 16 21Z"/>
</symbol></svg>