<svg width="34" height="44" viewBox="0 0 34 44" fill="none" xmlns="http://www.w3.org/2000/svg">
<circle cx="14" cy="15" r="1" fill="#FF3230"/>
<circle cx="20" cy="15" r="1" fill="#FF3230"/>
<path fill-rule="evenodd" clip-rule="evenodd" d="M3.8 4L7 4.5V11C7 13 7.7 17.7 7.8 17.8C8 19.5 8.7 21.1 9.7 22.4L9.9 22.7C11.6 24.8 14.2 26 17 26C19.8 26 22.3 24.8 24.1 22.7L24.3 22.4C25.4 21.1 26 19.5 26.2 17.9C26.2 17.9 26.5 16 26.7 14.1C26.8 13.6 26.4 13.1 25.8 13C25.2 12.9 24.8 13.3 24.7 13.9C24.5 15.7 24.2 17.6 24.2 17.6C24.1 18.9 23.5 20.1 22.7 21.1L22.5 21.4C21.2 23.1 19.2 24 17 24C14.8 24 12.8 23.1 11.5 21.4L11.3 21.1C10.5 20.1 9.9 18.9 9.8 17.5C9.8 17.5 9 12.8 9 10.9V4.8L16.8 6H17H17.2L25 4.8V9.2C20.8 10.1 15.7 10.2 11.1 9.60001C10.6 9.5 10 9.89999 10 10.4C9.9 10.9 10.3 11.5 10.8 11.5C12.8 11.8 14.8 11.9 16.9 11.9C20.1 11.9 23.4 11.6 26.2 10.9C26.6 10.8 27 10.4 27 9.89999V4.5L29 4.2V9.3C28.4 9.60001 28 10.3 28 11C28 12.1 28.9 13 30 13C31.1 13 32 12.1 32 11C32 10.3 31.6 9.60001 31 9.3V3C31 2.5 30.6 2.10001 30.2 2L17.2 0H16.9L3.9 2C3.4 2.10001 3 2.5 3 3C3 3.5 3.4 3.89999 3.8 4ZM17 2L23.4 3L17 4L10.6 3L17 2ZM23.2 28.0002L30 29.4002C32.3 29.8002 34 31.9002 34 34.3002V41.0002C34 42.7002 32.7 44.0002 31 44.0002H3C1.3 44.0002 0 42.7002 0 41.0002V34.3002C0 31.9002 1.7 29.9002 4 29.4002L10.8 28.0002C11.4 27.9002 11.9 28.3002 12 28.8002C12.1 29.4002 11.7 29.9002 11.2 30.0002L4.4 31.4002C3 31.6002 2 32.9002 2 34.3002V41.0002C2 41.6002 2.4 42.0002 3 42.0002H30.9C31.5 42.0002 31.9 41.6002 31.9 41.0002V34.3002C31.9 32.9002 30.9 31.7002 29.5 31.4002L23.2 30.1002L19.5 33.2002C19 33.6002 18.5 33.9002 17.9 34.0002V39.0002C17.9 39.6002 17.5 40.0002 16.9 40.0002C16.3 40.0002 15.9 39.6002 15.9 39.0002V34.0002C15.4 33.8002 14.9 33.6002 14.4 33.2002L12.4 31.8002C11.9 31.5002 11.8 30.9002 12.1 30.4002C12.4 29.9002 13 29.8002 13.5 30.1002L15.6 31.5002C15.6 31.6002 15.7 31.6002 15.7 31.6002C16.5 32.2002 17.6 32.2002 18.3 31.6002L22.4 28.2002C22.6 28.0002 22.9 27.9002 23.2 28.0002Z" fill="#FF3230"/>
<path d="M16 21H18C18.6 21 19 20.6 19 20C19 19.4 18.6 19 18 19H16C15.4 19 15 19.4 15 20C15 20.6 15.4 21 16 21Z" fill="#FF3230"/>
</svg>
